<?xml version="1.0" standalone="no"?>
<!DOCTYPE svg PUBLIC "-//W3C//DTD SVG 1.1//EN" "http://www.w3.org/Graphics/SVG/1.1/DTD/svg11.dtd" >
<svg xmlns="http://www.w3.org/2000/svg" xmlns:xlink="http://www.w3.org/1999/xlink" version="1.1">
<metadata>
Created by FontForge 20200427 at Wed Oct  1 22:51:37 2014
 By www
Copyright (c) 2012 by Rene Bieder. All rights reserved.
</metadata>
<defs>
<font id="RBNo2.1aW00-Book" horiz-adv-x="377" >
  <font-face 
    font-family="RBNo2.1aW00-Book"
    font-weight="450"
    font-stretch="normal"
    units-per-em="1000"
    panose-1="2 0 0 0 0 0 0 0 0 0"
    ascent="800"
    descent="-200"
    x-height="552"
    cap-height="700"
    bbox="-26 -194 812 906"
    underline-thickness="50"
    underline-position="-175"
    unicode-range="U+0020-FB02"
  />
<missing-glyph horiz-adv-x="432" 
d="M0 700h432v-700h-432v700zM412 33v633l-184 -316zM21 666v-633l183 317zM35 20h361l-180 311zM216 369l180 312h-361z" />
    <glyph glyph-name=".notdef" horiz-adv-x="432" 
d="M0 700h432v-700h-432v700zM412 33v633l-184 -316zM21 666v-633l183 317zM35 20h361l-180 311zM216 369l180 312h-361z" />
    <glyph glyph-name=".null" horiz-adv-x="0" 
 />
    <glyph glyph-name="nonmarkingreturn" horiz-adv-x="333" 
 />
    <glyph glyph-name="space" unicode=" " horiz-adv-x="140" 
 />
    <glyph glyph-name="exclam" unicode="!" horiz-adv-x="183" 
d="M60 520v180h63v-180l-15 -303h-33zM63 110h57v-110h-57v110z" />
    <glyph glyph-name="quotedbl" unicode="&#x22;" horiz-adv-x="271" 
d="M47 700h58v-111l-19 -169h-37zM166 700h58v-111l-19 -169h-37z" />
    <glyph glyph-name="numbersign" unicode="#" horiz-adv-x="558" 
d="M83 523h86l27 177h50l-27 -177h157l26 177h51l-27 -177h101l-8 -47h-101l-39 -263h100l-8 -46h-100l-25 -167h-49l24 167h-157l-24 -167h-50l25 167h-87l8 46h87l38 263h-85zM172 213h157l38 263h-156z" />
    <glyph glyph-name="dollar" unicode="$" horiz-adv-x="386" 
d="M165 -2q-34 1 -58.5 7t-40 21t-23 40.5t-7.5 65.5v102h69v-106q0 -24 5 -38.5t15 -21.5t23 -9t30 -2h32q16 0 29.5 2t23 9t15 21.5t5.5 38.5v121q0 21 -5.5 33.5t-15 20.5t-22.5 13t-29 12l-76 25q-20 8 -38 15.5t-31.5 20.5t-21.5 33t-8 52v94q0 40 7.5 66t23 41
t40 20.5t58.5 6.5v69h55v-69q34 -1 58 -7t39.5 -21t23 -40.5t7.5 -65.5v-102h-69v107q0 24 -5.5 38t-15 21t-23 9t-29.5 2h-28q-16 0 -29.5 -2t-23 -9t-15 -21t-5.5 -38v-79q0 -22 5 -35.5t15 -22t24.5 -14.5t33.5 -13l72 -25l37.5 -15t31 -19.5t21 -32t7.5 -52.5v-133
q0 -41 -7.5 -66.5t-24 -40.5t-41.5 -20.5t-59 -6.5v-85h-55v85z" />
    <glyph glyph-name="percent" unicode="%" horiz-adv-x="612" 
d="M172 701q45 0 64.5 -18t19.5 -65v-207q0 -48 -19.5 -66t-64.5 -18h-42q-45 0 -64.5 18t-19.5 66v207q0 47 19.5 65t64.5 18h42zM482 373q45 0 64.5 -18t19.5 -66v-206q0 -48 -19.5 -66.5t-64.5 -18.5h-42q-45 0 -64.5 18.5t-19.5 66.5v206q0 48 19.5 66t64.5 18h42z
M442 340q-20 0 -32.5 -8.5t-12.5 -37.5v-215q0 -29 12.5 -38t32.5 -9h38q20 0 32.5 9t12.5 38v215q0 29 -12.5 37.5t-32.5 8.5h-38zM132 668q-20 0 -32.5 -8.5t-12.5 -37.5v-215q0 -29 12.5 -38t32.5 -9h38q20 0 32.5 9t12.5 38v215q0 29 -12.5 37.5t-32.5 8.5h-38zM423 700
h42l-284 -700h-41z" />
    <glyph glyph-name="ampersand" unicode="&#x26;" horiz-adv-x="468" 
d="M304 606h-99q-15 0 -27.5 -2.5t-21.5 -10t-14 -21t-5 -35.5v-82q0 -22 5 -35t14 -20.5t21 -10.5t26 -3h258v-43l-112 -14v-329h-168q-36 0 -61 4t-41.5 17t-24 38t-7.5 68v124q0 30 7 50.5t18 32.5t26 17.5t32 7.5q-27 5 -43.5 29t-16.5 77v72q0 39 7.5 63.5t24 38.5
t42 19t61.5 5h99v-57zM287 326h-102q-15 0 -27.5 -2.5t-22.5 -10t-15.5 -21t-5.5 -35.5v-137q0 -22 5 -35t14 -20t21.5 -9t26.5 -2h106v272z" />
    <glyph glyph-name="quotesingle" unicode="'" horiz-adv-x="152" 
d="M47 700h58v-111l-19 -169h-37z" />
    <glyph glyph-name="parenleft" unicode="(" horiz-adv-x="198" 
d="M104 13q0 -28 3 -42.5t11 -27.5q3 -6 9 -14t13 -16.5t13 -16t8 -10.5l-27 -25q-5 3 -13 10.5t-17 16.5t-17.5 18.5t-13.5 17.5q-13 16 -19.5 37t-6.5 52v578q0 31 6.5 52t19.5 37q5 7 13.5 17t17.5 19t17 16.5t13 10.5l26 -25q-2 -3 -8 -10.5t-12.5 -16t-12.5 -16.5
t-9 -14q-8 -13 -11 -27.5t-3 -42.5v-578z" />
    <glyph glyph-name="parenright" unicode=")" horiz-adv-x="198" 
d="M93 591q0 28 -3 42.5t-11 27.5q-3 6 -9 14t-13 16.5t-12.5 16t-7.5 10.5l26 25q4 -3 12.5 -10.5t17.5 -16.5t17.5 -19t13.5 -17q13 -16 19.5 -37t6.5 -52v-578q0 -31 -6.5 -52t-19.5 -37q-5 -8 -13.5 -17.5t-17.5 -18.5t-17.5 -16.5t-12.5 -10.5l-27 25q2 3 8 10.5t13 16
t13 16.5t9 14q8 13 11 27.5t3 42.5v578z" />
    <glyph glyph-name="asterisk" unicode="*" horiz-adv-x="320" 
d="M228 488l-56 51l6 11l69 -32l44 -28l-17 -31zM73 589l-45 29l18 31l45 -29l57 -51l-7 -12zM91 488l-45 -29l-18 31l45 28l68 32l7 -11zM247 589l-69 -32l-6 12l56 51l46 29l17 -31zM142 461l11 75h13l11 -75v-53h-35v53zM142 647v53h35v-53l-11 -75h-13z" />
    <glyph glyph-name="plus" unicode="+" horiz-adv-x="322" 
d="M25 381h113v116h45v-116h115v-45h-115v-117h-45v117h-113v45z" />
    <glyph glyph-name="comma" unicode="," horiz-adv-x="152" 
d="M46 103h60v-77q0 -24 -3.5 -40.5t-9.5 -29.5t-14.5 -23.5t-18.5 -22.5l-20 14q8 13 13.5 22t9 16.5t5 16t1.5 21.5h-23v103z" />
    <glyph glyph-name="hyphen" unicode="-" horiz-adv-x="281" 
d="M25 326h231v-53h-231v53z" />
    <glyph glyph-name="period" unicode="." horiz-adv-x="178" 
d="M60 103h58v-103h-58v103z" />
    <glyph glyph-name="slash" unicode="/" horiz-adv-x="245" 
d="M161 739h42l-133 -777h-41z" />
    <glyph glyph-name="zero" unicode="0" horiz-adv-x="409" 
d="M225 702q37 0 63.5 -6t43.5 -21.5t25.5 -43t8.5 -69.5v-424q0 -42 -8.5 -69t-25.5 -43t-43.5 -22t-63.5 -6h-41q-37 0 -63.5 6t-44 22t-25.5 43t-8 69v424q0 42 8 69.5t25.5 43t44 21.5t63.5 6h41zM225 55q16 0 30 2t24 9.5t15.5 22t5.5 39.5v444q0 25 -5.5 39.5
t-15.5 22t-24 9.5t-30 2h-41q-16 0 -29.5 -2t-23.5 -9.5t-15.5 -22t-5.5 -39.5v-444q0 -25 5.5 -39.5t15.5 -22t23.5 -9.5t29.5 -2h41z" />
    <glyph glyph-name="one" unicode="1" horiz-adv-x="302" 
d="M131 700h65v-646h99v-54h-265v54h102v583l-116 -35l-18 41z" />
    <glyph glyph-name="two" unicode="2" horiz-adv-x="359" 
d="M32 183q0 31 6.5 53.5t17 39t24.5 29.5t29 25l85 70q36 28 54.5 57t18.5 72v46q0 24 -5.5 38.5t-15 21.5t-23.5 9t-30 2h-21q-16 0 -29.5 -2t-23 -9t-15 -21.5t-5.5 -38.5v-79h-64v72q0 42 9 68.5t26.5 41t43.5 19.5t60 5h27q34 0 58.5 -6.5t40 -21.5t23 -41t7.5 -65v-48
q0 -32 -7 -55t-18.5 -41t-26 -31.5t-30.5 -26.5l-80 -67q-15 -13 -28 -23t-22.5 -22t-15 -28.5t-5.5 -42.5v-127h237v-56h-302v183z" />
    <glyph glyph-name="three" unicode="3" horiz-adv-x="368" 
d="M108 389h113q23 0 38 11t15 49v125q0 24 -5.5 38.5t-15 22t-23 9.5t-29.5 2h-32q-16 0 -29.5 -2t-23 -9.5t-15 -22t-5.5 -38.5v-57h-64v51q0 43 8 69t25 40.5t43.5 19.5t64.5 5h31q34 0 59.5 -5t42.5 -19.5t25.5 -40.5t8.5 -69v-103q0 -54 -15 -76t-43 -27q28 -5 43 -26
t15 -75v-129q0 -46 -9.5 -72.5t-27.5 -40t-43 -17.5t-56 -4h-31q-38 0 -64.5 5t-43.5 19.5t-25 40.5t-8 69v58h64v-64q0 -24 5.5 -38.5t15 -22t23 -9.5t29.5 -2h32q16 0 29.5 2t23 9.5t15 22t5.5 38.5v145q0 38 -15 49t-38 13h-113v56z" />
    <glyph glyph-name="four" unicode="4" horiz-adv-x="411" 
d="M201 700h104v-486h93v-54h-93v-160h-63v160h-241v48zM69 214h173v431h-2z" />
    <glyph glyph-name="five" unicode="5" horiz-adv-x="363" 
d="M317 700v-59h-205v-220h118q25 0 45 -4t34 -16.5t22 -35.5t8 -61v-172q0 -46 -8.5 -72.5t-25.5 -40t-44 -17.5t-64 -4h-41q-34 0 -57.5 5t-38.5 19.5t-21.5 40.5t-6.5 69v66h63v-79q0 -24 5.5 -37.5t15 -19.5t23 -7t30.5 -1h31q16 0 29.5 1t23 7t15 19.5t5.5 37.5v182
q0 20 -4.5 32.5t-12.5 19t-19 8.5t-24 2l-168 -1l3 338h269z" />
    <glyph glyph-name="six" unicode="6" horiz-adv-x="365" 
d="M213 402q34 0 58 -4t40 -18.5t23.5 -42.5t7.5 -76v-129q0 -43 -7.5 -69t-24.5 -40.5t-43.5 -19.5t-63.5 -5h-30q-38 0 -64.5 6.5t-43.5 21.5t-25 41t-8 65v432q0 43 8 70t25.5 42t44 20.5t64.5 5.5h25q31 0 55 -5t40.5 -19.5t25.5 -40.5t9 -69v-66h-63v72q0 25 -5.5 39.5
t-15 21.5t-23 9t-28.5 2h-25q-15 0 -28.5 -2t-23 -9.5t-15 -22t-5.5 -38.5v-196q11 14 28 19t40 5h48zM155 346q-24 0 -40.5 -9.5t-17.5 -43.5v-167q0 -24 5.5 -38.5t15.5 -22t23.5 -9.5t29.5 -2h32q16 0 29.5 2t23.5 9.5t15.5 22t5.5 38.5v145q0 25 -5.5 40t-15.5 22.5
t-23.5 10t-29.5 2.5h-48z" />
    <glyph glyph-name="seven" unicode="7" horiz-adv-x="331" 
d="M20 700h291v-63l-194 -637h-66l194 631v12h-225v57z" />
    <glyph glyph-name="eight" unicode="8" horiz-adv-x="366" 
d="M175 -2q-37 0 -65 4t-47 17t-29 38t-10 68v134q0 31 5 52t14.5 34t24 19.5t33.5 8.5q-32 6 -49 28.5t-18 78.5v86q0 42 8 68.5t25 41.5t43 20.5t63 5.5h21q37 0 63.5 -5.5t44 -20.5t25.5 -41.5t8 -68.5v-79q0 -59 -17.5 -83.5t-51.5 -30.5q19 -2 33 -8.5t23.5 -19.5
t14.5 -34t5 -52v-134q0 -43 -10 -68t-29 -38t-47 -17t-65 -4h-16zM198 55q16 0 30.5 1t25.5 7t18 19t7 38v145q0 24 -5.5 38.5t-15.5 21.5t-24 9t-30 2h-43q-16 0 -29.5 -2t-23.5 -9t-15.5 -21.5t-5.5 -38.5v-145q0 -25 7 -38t18.5 -19t26 -7t30.5 -1h29zM172 645
q-17 0 -30.5 -2t-23.5 -9.5t-15.5 -22t-5.5 -38.5v-98q0 -23 5 -36.5t13.5 -20.5t20.5 -9.5t27 -2.5h39q15 0 28 2t22.5 9t14.5 20.5t5 37.5v98q0 24 -5.5 38.5t-15 22t-23.5 9.5t-31 2h-25z" />
    <glyph glyph-name="nine" unicode="9" horiz-adv-x="371" 
d="M156 280q-34 0 -58.5 4t-41 18.5t-24.5 42.5t-8 76v147q0 43 8 69t25.5 40.5t44 19.5t64.5 5h27q38 0 64.5 -6t43.5 -21.5t25 -41.5t8 -65v-432q0 -43 -7.5 -70t-24.5 -42t-43.5 -20.5t-63.5 -5.5h-25q-37 0 -63 5t-42.5 19.5t-24 40.5t-7.5 69v58h63v-61q0 -24 5.5 -39
t15 -23t23 -10.5t29.5 -2.5h26q16 0 30 2.5t23.5 10.5t15 23t5.5 39v174q-11 -14 -28 -18.5t-40 -4.5h-45zM211 336q13 0 23.5 2t18 8t12 18t4.5 32v180q0 24 -5.5 38t-15.5 21t-23.5 9t-29.5 2h-32q-16 0 -29.5 -2t-23.5 -9t-15.5 -21t-5.5 -38v-168q0 -24 5.5 -38.5
t15.5 -22t23.5 -9.5t29.5 -2h48z" />
    <glyph glyph-name="colon" unicode=":" horiz-adv-x="152" 
d="M48 103h58v-103h-58v103zM48 552h58v-103h-58v103z" />
    <glyph glyph-name="semicolon" unicode=";" horiz-adv-x="152" 
d="M46 103h60v-77q0 -24 -3.5 -40.5t-9.5 -29.5t-14.5 -23.5t-18.5 -22.5l-20 14q8 13 13.5 22t9 16.5t5 16t1.5 21.5h-23v103zM48 552h58v-103h-58v103z" />
    <glyph glyph-name="less" unicode="&#x3c;" horiz-adv-x="316" 
d="M86 360l205 -110v-53l-266 140v47l266 140v-54z" />
    <glyph glyph-name="equal" unicode="=" horiz-adv-x="322" 
d="M25 457h274v-43h-274v43zM25 297h274v-43h-274v43z" />
    <glyph glyph-name="greater" unicode="&#x3e;" horiz-adv-x="316" 
d="M25 470v54l266 -140v-47l-266 -140v53l205 110z" />
    <glyph glyph-name="question" unicode="?" horiz-adv-x="351" 
d="M184 702q34 0 60 -5t43.5 -19.5t26.5 -41t9 -68.5v-65q0 -27 -7 -45.5t-18 -32.5t-25.5 -25t-30.5 -24q-21 -17 -35.5 -28t-22.5 -21t-11.5 -23t-3.5 -34v-64h-55v88q0 19 5.5 33t14.5 25.5t21 21.5t25 21q18 16 32.5 28.5t24.5 25t15 28t5 36.5v63q0 24 -5 38t-15 21
t-23.5 9t-29.5 2h-10q-16 0 -29.5 -2.5t-23 -10t-15 -21.5t-5.5 -38v-92h-66v86q0 42 9 68.5t26.5 41t43.5 19.5t60 5h10zM111 108h60v-108h-60v108z" />
    <glyph glyph-name="at" unicode="@" horiz-adv-x="528" 
d="M274 517q62 0 86.5 -23t24.5 -84v-296q0 -29 6.5 -42t35.5 -13q33 0 40.5 14.5t7.5 43.5v364q0 33 -5.5 55.5t-18.5 36t-34.5 19.5t-52.5 6h-199q-31 0 -52.5 -6t-34.5 -19.5t-19 -36t-6 -55.5v-415q0 -66 25 -91t87 -25h258v-17h-258q-35 0 -59.5 5.5t-40.5 20
t-23.5 40.5t-7.5 67v415q0 41 7.5 67t23.5 40.5t40.5 20t59.5 5.5h199q34 0 59 -5.5t40.5 -20t23 -40.5t7.5 -67v-367q0 -46 -16 -61.5t-51 -15.5q-23 0 -37.5 1.5t-24.5 5.5t-17 10.5t-14 17.5q-15 -12 -33.5 -23.5t-47.5 -11.5h-22q-42 0 -69 22t-27 67v126q0 45 24 67
t65 22h107v71q0 20 -4.5 32t-12 18t-18.5 7.5t-23 1.5h-15q-13 0 -23.5 -1.5t-18.5 -7t-12.5 -17t-4.5 -31.5v-44h-52v40q0 31 5.5 51.5t18.5 33t34.5 17.5t53.5 5h15zM256 85q20 0 41 11.5t34 21.5v181h-94q-25 0 -36 -15.5t-11 -37.5v-111q0 -22 13.5 -36t33.5 -14h19z
" />
    <glyph glyph-name="A" unicode="A" horiz-adv-x="407" 
d="M402 0h-67l-33 161h-198l-32 -161h-67l139 700h120zM119 224h167l-78 423h-10z" />
    <glyph glyph-name="B" unicode="B" horiz-adv-x="391" 
d="M46 700h165q36 0 61 -5t41.5 -19t24 -38.5t7.5 -63.5v-106q0 -56 -16.5 -78.5t-45.5 -28.5q31 -6 48.5 -28t17.5 -79v-127q0 -43 -7.5 -68t-24 -38t-42 -17t-61.5 -4h-168v700zM113 57h101q15 0 27.5 2t21.5 9t14 20t5 35v144q0 22 -5.5 34.5t-15.5 18.5t-22.5 7.5
t-27.5 1.5h-98v-272zM113 392h103q27 0 44.5 10.5t17.5 52.5v122q0 22 -5 35t-14 20t-21 9t-27 2h-98v-251z" />
    <glyph glyph-name="C" unicode="C" horiz-adv-x="407" 
d="M222 702q37 0 64 -5t44.5 -19.5t25.5 -41t8 -68.5v-126h-69v130q0 24 -5.5 38t-15 21.5t-23 9.5t-29.5 2h-37q-16 0 -29.5 -2t-23 -9.5t-15 -21.5t-5.5 -38v-444q0 -24 5.5 -38t15 -21.5t23 -9.5t29.5 -2h37q16 0 29.5 2t23 9.5t15 21.5t5.5 38v150h69v-146q0 -42 -8 -68
t-25.5 -41t-44.5 -20t-64 -5h-37q-38 0 -64.5 5t-44 20t-25.5 41t-8 68v436q0 42 8 68.5t25.5 41t44 19.5t64.5 5h37z" />
    <glyph glyph-name="D" unicode="D" horiz-adv-x="396" 
d="M46 700h174q36 0 61 -5t41.5 -19t24 -38.5t7.5 -63.5v-447q0 -39 -7.5 -63.5t-24 -39t-41.5 -19.5t-61 -5h-174v700zM114 643l-1 -586h107q15 0 27.5 2t21.5 9t14 20t5 35v456q0 22 -5 34.5t-14 19t-21.5 8.5t-27.5 2h-106z" />
    <glyph glyph-name="E" unicode="E" horiz-adv-x="342" 
d="M114 57h201v-57h-268v700h268v-57h-201v-256h188v-57h-188v-273z" />
    <glyph glyph-name="F" unicode="F" horiz-adv-x="325" 
d="M114 0h-67v700h263v-57h-196v-266h183v-60h-183v-317z" />
    <glyph glyph-name="G" unicode="G" horiz-adv-x="404" 
d="M219 702q37 0 64 -5t44 -19.5t25.5 -41t8.5 -68.5v-86h-69v90q0 24 -5.5 38t-15.5 21.5t-23.5 9.5t-28.5 2h-34q-15 0 -28.5 -2t-23.5 -9.5t-15.5 -21.5t-5.5 -38v-447q0 -24 5.5 -38t15 -20.5t23 -8t29.5 -1.5h34q16 0 29.5 1.5t23 8t15 20.5t5.5 38v175h-93v58h162
v-226q0 -42 -8.5 -68t-25.5 -41t-44 -20t-64 -5h-34q-38 0 -64.5 5t-44 20t-25.5 41t-8 68v436q0 42 8 68.5t25.5 41t44 19.5t64.5 5h34z" />
    <glyph glyph-name="H" unicode="H" horiz-adv-x="410" 
d="M47 700h67v-313h183v313h67v-700h-67v324h-183v-324h-67v700z" />
    <glyph glyph-name="I" unicode="I" horiz-adv-x="161" 
d="M47 700h67v-700h-67v700z" />
    <glyph glyph-name="J" unicode="J" horiz-adv-x="250" 
d="M8 55h63q14 0 26.5 2t21.5 8.5t14.5 19.5t5.5 35v581h66v-564q0 -47 -7.5 -75t-24 -42.5t-41.5 -18.5t-61 -3l-63 2v55z" />
    <glyph glyph-name="K" unicode="K" horiz-adv-x="399" 
d="M114 0h-67v700h67v-324h85l109 324h70l-120 -351l134 -349h-73l-116 313h-89v-313z" />
    <glyph glyph-name="L" unicode="L" horiz-adv-x="310" 
d="M47 700h67v-643h186v-57h-253v700z" />
    <glyph glyph-name="M" unicode="M" horiz-adv-x="537" 
d="M115 0h-68v700h107l114 -570h1l114 570h107v-700h-68l3 589h-1l-122 -589h-65l-122 579h-3z" />
    <glyph glyph-name="N" unicode="N" horiz-adv-x="423" 
d="M122 700l188 -541h1v541h65v-700h-74l-186 530h-2v-530h-67v700h75z" />
    <glyph glyph-name="O" unicode="O" horiz-adv-x="409" 
d="M225 702q37 0 63.5 -5t43.5 -19.5t25.5 -40.5t8.5 -68v-438q0 -42 -8.5 -68t-25.5 -40.5t-43.5 -19.5t-63.5 -5h-41q-37 0 -63.5 5t-44 19.5t-25.5 40.5t-8 68v438q0 42 8 68t25.5 40.5t44 19.5t63.5 5h41zM224 55q16 0 30 2t24.5 9.5t16 22t5.5 39.5v444q0 25 -5.5 39.5
t-16 22t-24.5 9.5t-30 2h-38q-17 0 -30.5 -2t-24 -9.5t-16 -22t-5.5 -39.5v-444q0 -25 5.5 -39.5t16 -22t24 -9.5t30.5 -2h38z" />
    <glyph glyph-name="P" unicode="P" horiz-adv-x="364" 
d="M46 700h171q34 0 58 -5t39.5 -18t22.5 -36t7 -60v-212q0 -38 -7 -61t-22.5 -36t-39.5 -17.5t-58 -4.5h-104v-250h-67v700zM113 643v-337h101q13 0 25 2t20.5 8t13.5 17.5t5 31.5v219q0 20 -5 32t-13.5 18t-20.5 7.5t-25 1.5h-101z" />
    <glyph glyph-name="Q" unicode="Q" horiz-adv-x="409" 
d="M225 702q37 0 63.5 -5t43.5 -19.5t25.5 -40.5t8.5 -68v-438q0 -52 -12.5 -79.5t-38.5 -40.5l43 -92h-51l-48 80q-8 -1 -16.5 -1h-17.5h-41q-37 0 -63.5 5t-44 19.5t-25.5 40.5t-8 68v438q0 42 8 68t25.5 40.5t44 19.5t63.5 5h41zM224 55q16 0 30 2t24.5 9.5t16 22
t5.5 39.5v444q0 25 -5.5 39.5t-16 22t-24.5 9.5t-30 2h-38q-17 0 -30.5 -2t-24 -9.5t-16 -22t-5.5 -39.5v-444q0 -25 5.5 -39.5t16 -22t24 -9.5t30.5 -2h38z" />
    <glyph glyph-name="R" unicode="R" horiz-adv-x="378" 
d="M46 700h178q34 0 58 -4.5t39.5 -17.5t22.5 -36.5t7 -60.5v-139q0 -29 -5 -47.5t-13.5 -29.5t-20 -16.5t-23.5 -7.5q29 -7 45.5 -30.5t16.5 -79.5v-231h-66v241q0 41 -18.5 54t-45.5 15h-108v-310h-67v700zM113 366h111q13 0 24 2t19.5 8t13 18t4.5 32v159q0 20 -5 31.5
t-13.5 17.5t-20 7.5t-24.5 1.5h-109v-277z" />
    <glyph glyph-name="S" unicode="S" horiz-adv-x="386" 
d="M206 702q37 0 64 -5t44.5 -19.5t25.5 -41t8 -68.5v-102h-69v107q0 24 -5.5 38t-15 21t-23 9t-29.5 2h-28q-16 0 -29.5 -2t-23 -9t-15 -21t-5.5 -38v-79q0 -22 5 -35.5t15 -22t24.5 -14.5t33.5 -13l72 -25l37.5 -15t31 -19.5t21 -32t7.5 -52.5v-133q0 -42 -8.5 -68
t-25.5 -41t-44 -20t-64 -5h-32q-38 0 -64.5 5t-44 20t-25.5 41t-8 68v102h69v-106q0 -24 5 -38.5t15 -21.5t23 -9t30 -2h32q16 0 29.5 2t23 9t15 21.5t5.5 38.5v121q0 21 -5.5 33.5t-15 20.5t-22.5 13t-29 12l-76 25q-20 8 -38 15.5t-31.5 20.5t-21.5 33t-8 52v94
q0 42 8.5 68.5t25.5 41t44 19.5t64 5h28z" />
    <glyph glyph-name="T" unicode="T" horiz-adv-x="361" 
d="M214 0h-67v643h-140v57h346v-57h-139v-643z" />
    <glyph glyph-name="U" unicode="U" horiz-adv-x="409" 
d="M110 700v-571q0 -24 4.5 -39t13 -22.5t21 -10t29.5 -2.5h54q16 0 28.5 2.5t21.5 10t13.5 22.5t4.5 39v571h66v-569q0 -42 -8.5 -68t-25.5 -40.5t-43.5 -19.5t-63.5 -5h-41q-37 0 -63.5 5t-44 19.5t-25.5 40.5t-8 68v569h67z" />
    <glyph glyph-name="V" unicode="V" horiz-adv-x="439" 
d="M286 0h-133l-137 700h67l122 -638h28l123 638h67z" />
    <glyph glyph-name="W" unicode="W" horiz-adv-x="580" 
d="M80 700l79 -637h8l78 637h91l76 -637h9l80 637h68l-87 -700h-133l-58 574h-2l-58 -574h-133l-87 700h69z" />
    <glyph glyph-name="X" unicode="X" horiz-adv-x="365" 
d="M225 357l131 -357h-67l-107 298l-107 -298h-66l131 357l-124 343h66l100 -283l100 283h67z" />
    <glyph glyph-name="Y" unicode="Y" horiz-adv-x="390" 
d="M162 283l-153 417h67l118 -339l120 339h67l-153 -417v-283h-66v283z" />
    <glyph glyph-name="Z" unicode="Z" horiz-adv-x="335" 
d="M26 700h287v-57l-222 -586h222v-57h-291v57l228 586h-224v57z" />
    <glyph glyph-name="bracketleft" unicode="[" horiz-adv-x="243" 
d="M105 -45h129v-49h-185v827h185v-48h-129v-730z" />
    <glyph glyph-name="backslash" unicode="\" horiz-adv-x="245" 
d="M216 -38h-41l-133 777h42z" />
    <glyph glyph-name="bracketright" unicode="]" horiz-adv-x="243" 
d="M137 685h-129v48h185v-827h-185v49h129v730z" />
    <glyph glyph-name="asciicircum" unicode="^" horiz-adv-x="416" 
d="M208 654l-96 -177h-51l123 223h48l123 -223h-51z" />
    <glyph glyph-name="underscore" unicode="_" horiz-adv-x="402" 
d="M-3 -49h409v-45h-409v45z" />
    <glyph glyph-name="grave" unicode="`" horiz-adv-x="500" 
d="M296 597h-43l-69 82h66z" />
    <glyph glyph-name="a" unicode="a" horiz-adv-x="363" 
d="M179 501q-12 0 -23 -1.5t-19.5 -7.5t-13 -17.5t-4.5 -31.5v-45h-61v42q0 33 5.5 54.5t19 34.5t36.5 19t57 6h22q34 0 57 -5.5t37.5 -18.5t20.5 -35t6 -55v-440q-32 -1 -60 -1q-24 -1 -48 -1h-38h-37q-45 0 -72.5 23t-27.5 74v163q0 51 27.5 73.5t72.5 22.5h119v87
q0 21 -4.5 33t-12.5 18t-18.5 7.5t-23.5 1.5h-17zM99 105q0 -23 12 -37t34 -14h110v245h-110q-21 0 -33.5 -13t-12.5 -36v-145z" />
    <glyph glyph-name="b" unicode="b" 
d="M45 716h63v-164h125q46 0 73.5 -21.5t27.5 -72.5v-363q0 -51 -27.5 -74t-73.5 -23h-38h-53.5t-48.5 1q-26 0 -48 1v716zM108 499v-445h115q21 0 34.5 14t13.5 37v343q0 23 -13.5 37t-34.5 14h-115z" />
    <glyph glyph-name="c" unicode="c" horiz-adv-x="372" 
d="M206 555q35 0 58.5 -5.5t38 -19t21 -35.5t6.5 -55v-90h-66v90q0 39 -16 49.5t-42 10.5h-39q-26 0 -42.5 -10.5t-16.5 -49.5v-326q0 -39 16.5 -50t42.5 -11h39q26 0 42 11t16 50v106h66v-107q0 -33 -6.5 -55t-21 -35.5t-38 -19t-58.5 -5.5h-39q-35 0 -59 5.5t-38.5 19
t-21 35.5t-6.5 55v327q0 33 6.5 55t21 35.5t38.5 19t59 5.5h39z" />
    <glyph glyph-name="d" unicode="d" 
d="M43 458q0 51 27.5 72.5t72.5 21.5h126v164h63v-716q-31 -1 -59 -1q-24 -1 -49.5 -1h-41.5h-39q-45 0 -72.5 23t-27.5 74v363zM269 499h-115q-22 0 -35 -14t-13 -37v-343q0 -23 13 -37t35 -14h115v445z" />
    <glyph glyph-name="e" unicode="e" horiz-adv-x="370" 
d="M205 555q35 0 58.5 -5.5t38 -19t21 -35.5t6.5 -55v-189l-221 -2v-135q0 -40 16.5 -50.5t42.5 -10.5h42q25 0 41.5 10.5t16.5 50.5v55h63v-56q0 -65 -27.5 -90t-97.5 -25h-38q-35 0 -59 5.5t-38.5 19t-21 35.5t-6.5 55v327q0 33 6.5 55t21 35.5t38.5 19t59 5.5h38z
M167 500q-26 0 -42.5 -11t-16.5 -49v-135h156v135q0 38 -16.5 49t-42.5 11h-38z" />
    <glyph glyph-name="f" unicode="f" horiz-adv-x="207" 
d="M201 499h-83v-499h-64v499h-42v53h42v63q0 27 4.5 44.5t15.5 28t29.5 14.5t46.5 4q5 0 14 -0.5t18 -1.5q11 -1 22 -1v-50h-54q-20 0 -26 -11t-6 -29v-61h83v-53z" />
    <glyph glyph-name="g" unicode="g" 
d="M269 52h-126q-45 0 -72.5 23t-27.5 73v303q0 51 30.5 77t76.5 26h33q8 0 32.5 -0.5t50.5 -0.5q30 -1 66 -1v-557q0 -59 -26.5 -88t-96.5 -29h-35q-35 0 -58 6t-37 20.5t-20 38.5t-6 60v21h61v-34q0 -20 4.5 -31t12 -16.5t18.5 -7t24 -1.5h36q26 0 43 10.5t17 49.5v58z
M269 499h-115q-22 0 -35 -14t-13 -37v-290q0 -23 13 -37t35 -14h115v392z" />
    <glyph glyph-name="h" unicode="h" horiz-adv-x="376" 
d="M269 448q0 23 -13 37t-35 14h-113v-499h-63v716h63v-164h124q46 0 73 -21.5t27 -72.5v-458h-63v448z" />
    <glyph glyph-name="i" unicode="i" horiz-adv-x="154" 
d="M46 552h63v-552h-63v552zM44 696h66v-83h-66v83z" />
    <glyph glyph-name="j" unicode="j" horiz-adv-x="153" 
d="M-15 -78q13 15 24 28t19 29t12.5 36t4.5 47v490h63v-496q0 -32 -7.5 -57.5t-19.5 -46t-28 -36t-33 -27.5zM44 696h66v-83h-66v83z" />
    <glyph glyph-name="k" unicode="k" horiz-adv-x="356" 
d="M181 269h-73v-269h-63v716h63v-386h72l96 222h64l-107 -252l116 -300h-64z" />
    <glyph glyph-name="l" unicode="l" horiz-adv-x="153" 
d="M45 716h63v-716h-63v716z" />
    <glyph glyph-name="m" unicode="m" horiz-adv-x="587" 
d="M45 552l366 2h32q45 0 72.5 -22.5t27.5 -73.5v-458h-63v448q0 23 -13 37t-35 14h-106v-499h-64v480q0 14 -2 16.5t-13 2.5h-139v-499h-63v552z" />
    <glyph glyph-name="n" unicode="n" horiz-adv-x="376" 
d="M269 448q0 23 -13 37t-35 14h-113v-499h-63v552q27 0 53 1q23 0 48.5 0.5t47.5 0.5h38q46 0 73 -22.5t27 -73.5v-458h-63v448z" />
    <glyph glyph-name="o" unicode="o" horiz-adv-x="374" 
d="M209 554q34 0 58 -5.5t38 -18.5t20.5 -35t6.5 -55v-328q0 -33 -6.5 -54.5t-20.5 -35t-38 -19t-58 -5.5h-43q-35 0 -58.5 5.5t-37.5 19t-20.5 35t-6.5 54.5v328q0 33 6.5 55t20.5 35t37.5 18.5t58.5 5.5h43zM209 51q26 0 43 11t17 51v327q0 20 -4.5 32.5t-12 19t-18.5 8.5
t-24 2h-44q-13 0 -24 -2t-18.5 -8.5t-12 -19t-4.5 -32.5l-1 -327q0 -40 17 -51t43 -11h43z" />
    <glyph glyph-name="p" unicode="p" 
d="M45 552q27 0 53 1q23 0 48.5 0.5t47.5 0.5h39q46 0 73.5 -26t27.5 -77v-356q0 -51 -27.5 -74t-73.5 -23h-38h-23t-29 1q-17 0 -35 1v-116h-63v668zM108 499v-445h115q21 0 34.5 14t13.5 37v343q0 23 -13.5 37t-34.5 14h-115z" />
    <glyph glyph-name="q" unicode="q" 
d="M43 451q0 51 30.5 77t76.5 26h33q14 0 38.5 -0.5t49.5 -0.5q29 -1 61 -1v-668h-63v116q-20 -1 -38 -1q-15 -1 -29.5 -1h-19.5h-39q-45 0 -72.5 23t-27.5 74v356zM269 499h-115q-22 0 -35 -14t-13 -37v-343q0 -23 13 -37t35 -14h115v445z" />
    <glyph glyph-name="r" unicode="r" horiz-adv-x="256" 
d="M45 462q0 40 18 66t68 26h29q10 0 25.5 -0.5t31.5 -1.5q18 -1 38 -2v-46q-24 -1 -45 -2q-18 -1 -35.5 -1.5t-24.5 -0.5q-29 -2 -35 -13.5t-7 -40.5v-446h-63v462z" />
    <glyph glyph-name="s" unicode="s" horiz-adv-x="332" 
d="M175 555q35 0 58 -5.5t37 -19t20 -35.5t6 -55v-47h-63v51q0 38 -16 47t-42 9h-22q-13 0 -24 -1.5t-18.5 -7.5t-12 -17t-4.5 -30v-53q0 -26 16 -35.5t43 -21.5l69 -26q16 -6 31 -13.5t26.5 -18.5t18 -27t6.5 -40v-93q0 -33 -6.5 -55t-21 -36t-38 -20t-58.5 -6h-27
q-35 0 -59 5.5t-38.5 19t-20.5 35.5t-6 55v52h65v-55q0 -20 4.5 -31t12 -17t18.5 -7.5t24 -1.5h27q26 0 42 10.5t16 49.5v84q0 16 -5 26t-13.5 16.5t-19 10.5t-21.5 9l-68 27q-15 6 -30 12.5t-26.5 17t-18.5 26.5t-7 42v55q0 33 6 55t20.5 35.5t38.5 19t59 5.5h22z" />
    <glyph glyph-name="t" unicode="t" horiz-adv-x="212" 
d="M201 499h-83v-405q0 -18 6.5 -29t26.5 -11h57v-54l-57 -2q-28 -1 -46.5 3.5t-29.5 15t-15.5 28.5t-4.5 45v409h-42v53h42v124h63v-124h83v-53z" />
    <glyph glyph-name="u" unicode="u" horiz-adv-x="374" 
d="M105 105q0 -23 13 -37t35 -14h113v498h63v-552q-35 -1 -65 -1q-26 -1 -50.5 -1h-32.5h-39q-45 0 -72.5 23t-27.5 74v457h63v-447z" />
    <glyph glyph-name="v" unicode="v" horiz-adv-x="354" 
d="M233 0h-112l-113 552h66l100 -487h7l99 487h66z" />
    <glyph glyph-name="w" unicode="w" horiz-adv-x="522" 
d="M261 410h-1l-58 -410h-114l-80 552h67l67 -492h9l72 492h76l73 -492h8l67 492h67l-80 -552h-113z" />
    <glyph glyph-name="x" unicode="x" horiz-adv-x="333" 
d="M217 286l104 -286h-66l-88 241l-87 -241h-66l103 286l-103 266h66l87 -220l88 220h66z" />
    <glyph glyph-name="y" unicode="y" horiz-adv-x="339" 
d="M-4 552h68l91 -486h22l85 486h67l-120 -677h-60l22 128h-68z" />
    <glyph glyph-name="z" unicode="z" horiz-adv-x="315" 
d="M297 0h-279v54l207 442h-204v56h275v-56l-206 -440h207v-56z" />
    <glyph glyph-name="braceleft" unicode="{" horiz-adv-x="216" 
d="M9 325q4 3 13.5 8.5t19 14.5t16.5 23t7 34v186q0 31 7 52t19 37q5 7 14 17t18 19t17 16.5t12 10.5l24 -19q-2 -3 -7.5 -10t-11.5 -15.5l-12 -17t-9 -13.5q-8 -14 -11 -31.5t-3 -45.5v-186q0 -38 -18 -61t-38 -37q20 -14 38 -37t18 -60v-197q0 -28 3 -45.5t11 -31.5
q3 -5 9 -13t12 -16.5t11.5 -16t7.5 -10.5l-24 -19q-4 3 -12 11l-17 17t-18 18.5t-14 16.5q-12 16 -19 37t-7 52v197q0 19 -7 32.5t-16 23t-18.5 15.5t-14.5 9v35z" />
    <glyph glyph-name="bar" unicode="|" horiz-adv-x="240" 
d="M95 760h51v-826h-51v826z" />
    <glyph glyph-name="braceright" unicode="}" horiz-adv-x="216" 
d="M206 290q-5 -3 -14.5 -9t-18.5 -15.5t-16 -23t-7 -32.5v-197q0 -31 -7 -52t-19 -37q-5 -7 -14 -16.5t-18 -18.5l-17 -17t-12 -11l-24 19q2 3 7.5 10.5t11.5 16t12 16.5t9 13q8 14 11 31.5t3 45.5v197q0 37 18 60t38 37q-20 14 -38 37t-18 61v186q0 28 -3 45.5t-11 31.5
q-3 5 -9 13.5l-12 17t-11.5 15.5t-7.5 10l24 19q4 -3 12 -10.5t17 -16.5t18 -19t14 -17q12 -16 19 -37t7 -52v-186q0 -20 7 -34t16.5 -23t19 -14.5t13.5 -8.5v-35z" />
    <glyph glyph-name="asciitilde" unicode="~" horiz-adv-x="400" 
d="M134 379l-1 -55h-36l1 85h38l129 -47l1 43h36l-2 -85h-36z" />
    <glyph glyph-name="uni00A0" unicode="&#xa0;" horiz-adv-x="140" 
 />
    <glyph glyph-name="exclamdown" unicode="&#xa1;" horiz-adv-x="158" 
d="M63 483h33l15 -303v-180h-63v180zM51 700h57v-110h-57v110z" />
    <glyph glyph-name="cent" unicode="&#xa2;" horiz-adv-x="372" 
d="M159 -2q-33 1 -55.5 7t-36 19.5t-19.5 35t-6 53.5v327q0 32 6 53.5t19.5 35t36 19.5t55.5 7v69h54v-69q33 -1 55 -7t36 -19.5t20 -35t6 -53.5v-90h-66v90q0 39 -16 49.5t-42 10.5h-39q-26 0 -42.5 -10.5t-16.5 -49.5v-326q0 -39 16.5 -50t42.5 -11h39q26 0 42 11t16 50
v106h66v-107q0 -32 -6 -53.5t-20 -35t-36 -19.5t-55 -7v-76h-54v76z" />
    <glyph glyph-name="sterling" unicode="&#xa3;" horiz-adv-x="399" 
d="M198 645q-16 0 -29.5 -2t-23 -9.5t-15 -21.5t-5.5 -38v-227h174v-56h-174v-236h243v-55h-354v55h42v236h-42v56h42v214q0 42 8.5 69.5t25.5 43.5t44 22t64 6h17q37 0 64 -5t44.5 -19.5t25.5 -41t8 -68.5v-106h-62v112q0 24 -5.5 38t-15 21.5t-23 9.5t-29.5 2h-24v0z" />
    <glyph glyph-name="yen" unicode="&#xa5;" horiz-adv-x="390" 
d="M44 319h105l-140 381h67l118 -339l120 339h67l-140 -381h102v-33h-114l-1 -3v-57h115v-33h-115v-193h-66v193h-118v33h118v57l-1 3h-117v33z" />
    <glyph glyph-name="section" unicode="&#xa7;" horiz-adv-x="400" 
d="M179 654q-17 0 -30.5 -2t-23.5 -9.5t-15.5 -22t-5.5 -39.5v-9q0 -22 6.5 -34.5t17.5 -19.5t25.5 -11.5t31.5 -9.5l84 -21q22 -5 39.5 -12.5t30 -19.5t19.5 -30t7 -46v-94q0 -23 -10 -38t-22 -26q10 -13 15 -31.5t5 -45.5v-11q0 -42 -10.5 -66.5t-29.5 -37.5t-45 -16.5
t-56 -3.5h-48t-51 1q-28 0 -57 1v46h156q16 0 31.5 1.5t27 9t18.5 22t7 40.5v14q0 21 -7 33.5t-18.5 20t-27 11.5t-31.5 9l-84 21q-22 5 -39.5 12t-30 19t-19 30.5t-6.5 46.5v92q0 25 9 40t22 26q-9 14 -14.5 32.5t-5.5 45.5v6q0 39 10.5 63t29.5 37.5t45 18.5t56 5
q20 0 44 -0.5t44 -0.5q24 -1 48 -1v-46h-142zM161 447q-31 7 -43.5 12.5t-21.5 13.5q-5 -8 -8 -14.5t-3 -17.5v-92q0 -20 3.5 -31.5t11.5 -18t20.5 -10.5t30.5 -9l84 -22q6 -2 15.5 -5t19.5 -7t18 -8t13 -8q11 15 11 33v92q0 21 -4 33t-13 19t-22 11t-31 9z" />
    <glyph glyph-name="dieresis" unicode="&#xa8;" horiz-adv-x="500" 
d="M164 679h44v-71h-44v71zM292 679h44v-71h-44v71z" />
    <glyph glyph-name="copyright" unicode="&#xa9;" horiz-adv-x="519" 
d="M338 700q68 0 109 -32.5t41 -108.5v-417q0 -38 -11 -65t-30.5 -44t-47 -25t-61.5 -8h-152q-67 0 -108 33t-41 109v417q0 76 41 108.5t108 32.5h152zM338 16q63 0 97.5 30t34.5 96v417q0 68 -36.5 97t-95.5 29h-152q-59 0 -95 -29t-36 -97v-417q0 -65 34 -95.5t97 -30.5
h152zM277 611q28 0 48.5 -5t33 -17t18.5 -33.5t6 -54.5v-90h-51v101q0 19 -4.5 30t-12 16.5t-18.5 7t-23 1.5h-29q-11 0 -21 -1t-18 -6.5t-13 -16.5t-5 -31v-327q0 -37 15.5 -47t41.5 -10h29q25 0 41.5 9.5t16.5 47.5v115h51v-106q0 -33 -6 -54t-18.5 -33.5t-33 -17.5
t-48.5 -5h-36q-57 0 -80.5 24t-23.5 89v301q0 66 23.5 89.5t80.5 23.5h36z" />
    <glyph glyph-name="ordfeminine" unicode="&#xaa;" horiz-adv-x="247" 
d="M135 702q42 0 57.5 -13.5t15.5 -54.5v-265h-102q-27 0 -47 13t-20 44v100q0 35 17 46t43 11h70v50q0 25 -10 30t-25 5h-17q-15 0 -24 -5.5t-9 -29.5v-26h-38v26q0 39 16.5 54t54.5 15h18zM169 403v150h-64q-27 0 -27 -31v-90q0 -29 27 -29h64zM208 282h-171v37h171v-37z
" />
    <glyph glyph-name="guillemotleft" unicode="&#xab;" horiz-adv-x="278" 
d="M122 278v9l87 163h46l-79 -163v-9l79 -162h-46zM14 287l93 163h44l-82 -163v-9l82 -162h-44l-93 162v9z" />
    <glyph glyph-name="registered" unicode="&#xae;" horiz-adv-x="358" 
d="M149 375h-29v259h69q28 0 41.5 -9t13.5 -41v-51q0 -21 -6.5 -30t-21.5 -12q15 -3 21.5 -12t6.5 -30v-74h-29v77q0 28 -22 28h-44v-105zM149 609v-104h44q9 0 15.5 5t6.5 19v55q0 14 -7 19.5t-19 5.5h-40zM140 300q-50 0 -76.5 19.5t-26.5 79.5v203q0 30 7 49t20 30t32 15
t44 4h72q25 0 44 -4t32.5 -15t20.5 -30t7 -49v-203q0 -60 -27 -79.5t-77 -19.5h-72zM212 311q24 0 41 4t28.5 14t17 27t5.5 43v203q0 54 -23.5 70.5t-68.5 16.5h-72q-44 0 -67.5 -16.5t-23.5 -70.5v-203q0 -52 22.5 -70t68.5 -18h72z" />
    <glyph glyph-name="macron" unicode="&#xaf;" horiz-adv-x="500" 
d="M157 658h186v-38h-186v38z" />
    <glyph glyph-name="degree" unicode="&#xb0;" horiz-adv-x="248" 
d="M143 702q25 0 40.5 -5.5t23 -17t10 -28t2.5 -38.5v-129q0 -22 -2.5 -38.5t-10 -28t-23 -17t-40.5 -5.5h-37q-26 0 -41 5.5t-22.5 17t-10 28t-2.5 38.5v129q0 22 2.5 38.5t10 28t22.5 17t41 5.5h37zM107 666q-26 0 -32 -11t-6 -35v-143q0 -24 6 -35t32 -11h35q26 0 32 11
t6 35v143q0 24 -6 35t-32 11h-35z" />
    <glyph glyph-name="plusminus" unicode="&#xb1;" horiz-adv-x="322" 
d="M25 443h113v115h45v-115h115v-45h-115v-117h-45v117h-113v45zM25 220h273v-45h-273v45z" />
    <glyph glyph-name="acute" unicode="&#xb4;" horiz-adv-x="500" 
d="M250 679h66l-70 -82h-43z" />
    <glyph glyph-name="paragraph" unicode="&#xb6;" horiz-adv-x="426" 
d="M193 333h-74q-21 0 -37 8t-26.5 21.5t-16 30.5t-5.5 35v177q0 18 5 35t15.5 30.5t26.5 21.5t38 8h260v-700h-40v655h-106v-655h-40v333z" />
    <glyph glyph-name="periodcentered" unicode="&#xb7;" horiz-adv-x="174" 
d="M59 369h58v-103h-58v103z" />
    <glyph glyph-name="cedilla" unicode="&#xb8;" horiz-adv-x="500" 
d="M246 -114h-50l39 114h36z" />
    <glyph glyph-name="ordmasculine" unicode="&#xba;" horiz-adv-x="257" 
d="M143 702q42 0 58 -16t16 -56v-191q0 -38 -16 -54t-58 -16h-29q-41 0 -57.5 16t-16.5 54v191q0 40 16.5 56t57.5 16h29zM143 403q14 0 24 6t10 29v194q0 23 -9 28.5t-25 5.5h-29q-14 0 -23.5 -5.5t-9.5 -28.5v-194q0 -23 9.5 -29t23.5 -6h29zM40 319h177v-37h-177v37z" />
    <glyph glyph-name="guillemotright" unicode="&#xbb;" horiz-adv-x="278" 
d="M70 116h-47l79 162v9l-79 163h47l87 -163v-9zM264 278l-93 -162h-43l82 162v9l-82 163h43l93 -163v-9z" />
    <glyph glyph-name="questiondown" unicode="&#xbf;" horiz-adv-x="351" 
d="M175 -2q-34 0 -60 5t-43.5 19.5t-26.5 41t-9 68.5v65q0 27 6.5 45.5t18 32.5t26 25t30.5 24q21 17 35.5 28t22.5 21t11.5 23t3.5 34v64h55v-88q0 -20 -5.5 -34t-14.5 -25t-21 -21t-25 -21q-18 -16 -32.5 -28.5t-24.5 -25.5t-15 -28t-5 -36v-63q0 -24 5 -38t15 -21t23 -9
t30 -2h10q16 0 29.5 2t23 9.5t15 22t5.5 38.5v92h66v-86q0 -42 -9 -68.5t-26.5 -41t-43.5 -19.5t-60 -5h-10zM248 592h-60v108h60v-108z" />
    <glyph glyph-name="Agrave" unicode="&#xc0;" horiz-adv-x="385" 
d="M392 0h-67l-33 161h-198l-32 -161h-67l139 700h120zM109 224h167l-78 423h-10zM220 744h-43l-69 82h66z" />
    <glyph glyph-name="Aacute" unicode="&#xc1;" horiz-adv-x="385" 
d="M392 0h-67l-33 161h-198l-32 -161h-67l139 700h120zM109 224h167l-78 423h-10zM210 826h66l-70 -82h-43z" />
    <glyph glyph-name="Acircumflex" unicode="&#xc2;" horiz-adv-x="385" 
d="M392 0h-67l-33 161h-198l-32 -161h-67l139 700h120zM109 224h167l-78 423h-10zM162 826h64l66 -82h-43l-55 55l-55 -55h-43z" />
    <glyph glyph-name="Atilde" unicode="&#xc3;" horiz-adv-x="385" 
d="M392 0h-67l-33 161h-198l-32 -161h-67l139 700h120zM109 224h167l-78 423h-10zM140 800l-2 -47h-30l2 72h31l107 -40l3 39h29l-2 -73h-30z" />
    <glyph glyph-name="Adieresis" unicode="&#xc4;" horiz-adv-x="385" 
d="M392 0h-67l-33 161h-198l-32 -161h-67l139 700h120zM109 224h167l-78 423h-10zM108 826h44v-71h-44v71zM236 826h44v-71h-44v71z" />
    <glyph glyph-name="Aring" unicode="&#xc5;" horiz-adv-x="385" 
d="M392 0h-67l-33 161h-198l-32 -161h-67l139 700h120zM109 224h167l-78 423h-10zM201 852q34 0 45.5 -12.5t11.5 -41.5v-13q0 -29 -11.5 -41.5t-45.5 -12.5h-15q-33 0 -45 12.5t-12 41.5v13q0 29 12 41.5t45 12.5h15zM187 830q-21 0 -27 -6t-6 -24v-16q0 -20 6.5 -25.5
t26.5 -5.5h13q20 0 27 5.5t7 25.5v16q0 18 -6 24t-28 6h-13z" />
    <glyph glyph-name="AE" unicode="&#xc6;" horiz-adv-x="608" 
d="M313 167h-176l-57 -167h-66l240 700h327v-57h-201v-256h188v-58h-188v-272h201v-57h-268v167zM157 224h156v419h-19z" />
    <glyph glyph-name="Ccedilla" unicode="&#xc7;" horiz-adv-x="407" 
d="M222 702q37 0 64 -5t44.5 -19.5t25.5 -41t8 -68.5v-126h-69v130q0 24 -5.5 38t-15 21.5t-23 9.5t-29.5 2h-37q-16 0 -29.5 -2t-23 -9.5t-15 -21.5t-5.5 -38v-444q0 -24 5.5 -38t15 -21.5t23 -9.5t29.5 -2h37q16 0 29.5 2t23 9.5t15 21.5t5.5 38v150h69v-146q0 -42 -8 -68
t-25.5 -41t-44.5 -20t-64 -5h-5l-24 -112h-50l38 112q-36 0 -62.5 5.5t-43 20t-24.5 40.5t-8 68v436q0 42 8 68.5t25.5 41t44 19.5t64.5 5h37z" />
    <glyph glyph-name="Egrave" unicode="&#xc8;" horiz-adv-x="342" 
d="M114 57h201v-57h-268v700h268v-57h-201v-256h188v-57h-188v-273zM225 744h-43l-69 82h66z" />
    <glyph glyph-name="Eacute" unicode="&#xc9;" horiz-adv-x="342" 
d="M189 826h66l-70 -82h-43zM114 57h201v-57h-268v700h268v-57h-201v-256h188v-57h-188v-273z" />
    <glyph glyph-name="Ecircumflex" unicode="&#xca;" horiz-adv-x="342" 
d="M150 826h64l66 -82h-43l-55 55l-55 -55h-43zM114 57h201v-57h-268v700h268v-57h-201v-256h188v-57h-188v-273z" />
    <glyph glyph-name="Edieresis" unicode="&#xcb;" horiz-adv-x="342" 
d="M98 826h44v-71h-44v71zM226 826h44v-71h-44v71zM114 57h201v-57h-268v700h268v-57h-201v-256h188v-57h-188v-273z" />
    <glyph glyph-name="Igrave" unicode="&#xcc;" horiz-adv-x="161" 
d="M47 700h67v-700h-67v700zM106 744h-43l-69 82h66z" />
    <glyph glyph-name="Iacute" unicode="&#xcd;" horiz-adv-x="161" 
d="M47 700h67v-700h-67v700zM104 826h66l-70 -82h-43z" />
    <glyph glyph-name="Icircumflex" unicode="&#xce;" horiz-adv-x="161" 
d="M47 700h67v-700h-67v700zM49 826h64l66 -82h-43l-55 55l-55 -55h-43z" />
    <glyph glyph-name="Idieresis" unicode="&#xcf;" horiz-adv-x="161" 
d="M47 700h67v-700h-67v700zM-5 826h44v-71h-44v71zM123 826h44v-71h-44v71z" />
    <glyph glyph-name="Eth" unicode="&#xd0;" horiz-adv-x="405" 
d="M2 381h52v319h174q36 0 61 -5t41.5 -19t24 -38.5t7.5 -63.5v-447q0 -39 -7.5 -63.5t-24 -39t-41.5 -19.5t-61 -5h-174v334h-52v47zM122 643l-1 -262h71v-47h-71v-277h107q15 0 27.5 2t21.5 9t14 20t5 35v456q0 22 -5 34.5t-14 19t-21.5 8.5t-27.5 2h-106z" />
    <glyph glyph-name="Ntilde" unicode="&#xd1;" horiz-adv-x="423" 
d="M122 700l188 -541h1v541h65v-700h-74l-186 530h-2v-530h-67v700h75zM157 800l-2 -47h-30l2 72h31l107 -40l3 39h29l-2 -73h-30z" />
    <glyph glyph-name="Ograve" unicode="&#xd2;" horiz-adv-x="409" 
d="M225 702q37 0 63.5 -5t43.5 -19.5t25.5 -40.5t8.5 -68v-438q0 -42 -8.5 -68t-25.5 -40.5t-43.5 -19.5t-63.5 -5h-41q-37 0 -63.5 5t-44 19.5t-25.5 40.5t-8 68v438q0 42 8 68t25.5 40.5t44 19.5t63.5 5h41zM224 55q16 0 30 2t24.5 9.5t16 22t5.5 39.5v444q0 25 -5.5 39.5
t-16 22t-24.5 9.5t-30 2h-38q-17 0 -30.5 -2t-24 -9.5t-16 -22t-5.5 -39.5v-444q0 -25 5.5 -39.5t16 -22t24 -9.5t30.5 -2h38zM236 744h-43l-69 82h66z" />
    <glyph glyph-name="Oacute" unicode="&#xd3;" horiz-adv-x="409" 
d="M219 826h66l-70 -82h-43zM225 702q37 0 63.5 -5t43.5 -19.5t25.5 -40.5t8.5 -68v-438q0 -42 -8.5 -68t-25.5 -40.5t-43.5 -19.5t-63.5 -5h-41q-37 0 -63.5 5t-44 19.5t-25.5 40.5t-8 68v438q0 42 8 68t25.5 40.5t44 19.5t63.5 5h41zM224 55q16 0 30 2t24.5 9.5t16 22
t5.5 39.5v444q0 25 -5.5 39.5t-16 22t-24.5 9.5t-30 2h-38q-17 0 -30.5 -2t-24 -9.5t-16 -22t-5.5 -39.5v-444q0 -25 5.5 -39.5t16 -22t24 -9.5t30.5 -2h38z" />
    <glyph glyph-name="Ocircumflex" unicode="&#xd4;" horiz-adv-x="409" 
d="M174 826h64l66 -82h-43l-55 55l-55 -55h-43zM225 702q37 0 63.5 -5t43.5 -19.5t25.5 -40.5t8.5 -68v-438q0 -42 -8.5 -68t-25.5 -40.5t-43.5 -19.5t-63.5 -5h-41q-37 0 -63.5 5t-44 19.5t-25.5 40.5t-8 68v438q0 42 8 68t25.5 40.5t44 19.5t63.5 5h41zM224 55q16 0 30 2
t24.5 9.5t16 22t5.5 39.5v444q0 25 -5.5 39.5t-16 22t-24.5 9.5t-30 2h-38q-17 0 -30.5 -2t-24 -9.5t-16 -22t-5.5 -39.5v-444q0 -25 5.5 -39.5t16 -22t24 -9.5t30.5 -2h38z" />
    <glyph glyph-name="Otilde" unicode="&#xd5;" horiz-adv-x="409" 
d="M225 702q37 0 63.5 -5t43.5 -19.5t25.5 -40.5t8.5 -68v-438q0 -42 -8.5 -68t-25.5 -40.5t-43.5 -19.5t-63.5 -5h-41q-37 0 -63.5 5t-44 19.5t-25.5 40.5t-8 68v438q0 42 8 68t25.5 40.5t44 19.5t63.5 5h41zM224 55q16 0 30 2t24.5 9.5t16 22t5.5 39.5v444q0 25 -5.5 39.5
t-16 22t-24.5 9.5t-30 2h-38q-17 0 -30.5 -2t-24 -9.5t-16 -22t-5.5 -39.5v-444q0 -25 5.5 -39.5t16 -22t24 -9.5t30.5 -2h38zM151 800l-2 -47h-30l2 72h31l107 -40l3 39h29l-2 -73h-30z" />
    <glyph glyph-name="Odieresis" unicode="&#xd6;" horiz-adv-x="409" 
d="M120 826h44v-71h-44v71zM248 826h44v-71h-44v71zM225 702q37 0 63.5 -5t43.5 -19.5t25.5 -40.5t8.5 -68v-438q0 -42 -8.5 -68t-25.5 -40.5t-43.5 -19.5t-63.5 -5h-41q-37 0 -63.5 5t-44 19.5t-25.5 40.5t-8 68v438q0 42 8 68t25.5 40.5t44 19.5t63.5 5h41zM224 55
q16 0 30 2t24.5 9.5t16 22t5.5 39.5v444q0 25 -5.5 39.5t-16 22t-24.5 9.5t-30 2h-38q-17 0 -30.5 -2t-24 -9.5t-16 -22t-5.5 -39.5v-444q0 -25 5.5 -39.5t16 -22t24 -9.5t30.5 -2h38z" />
    <glyph glyph-name="multiply" unicode="&#xd7;" horiz-adv-x="309" 
d="M273 445l-87 -87l84 -84l-31 -32l-85 84l-86 -85l-31 32l86 85l-85 85l32 32l84 -85l87 86z" />
    <glyph glyph-name="Oslash" unicode="&#xd8;" horiz-adv-x="409" 
d="M225 702q26 0 46 -2.5t37 -8.5l17 48h37l-24 -67q28 -29 28 -103v-438q0 -42 -8.5 -68t-25.5 -40.5t-43.5 -19.5t-63.5 -5h-41q-55 0 -84 11l-17 -47h-37l24 67q-27 28 -27 102v438q0 42 8 68t25.5 40.5t44 19.5t63.5 5h41zM224 55q16 0 30 2t24.5 9.5t16 22t5.5 39.5
v438l-177 -491q11 -13 27 -16.5t36 -3.5h38zM110 140l175 487q-11 11 -26.5 14.5t-34.5 3.5h-38q-17 0 -30.5 -2t-24 -9.5t-16 -22t-5.5 -39.5v-432z" />
    <glyph glyph-name="Ugrave" unicode="&#xd9;" horiz-adv-x="409" 
d="M110 700v-571q0 -24 4.5 -39t13 -22.5t21 -10t29.5 -2.5h54q16 0 28.5 2.5t21.5 10t13.5 22.5t4.5 39v571h66v-569q0 -42 -8.5 -68t-25.5 -40.5t-43.5 -19.5t-63.5 -5h-41q-37 0 -63.5 5t-44 19.5t-25.5 40.5t-8 68v569h67zM242 744h-43l-69 82h66z" />
    <glyph glyph-name="Uacute" unicode="&#xda;" horiz-adv-x="409" 
d="M223 826h66l-70 -82h-43zM110 700v-571q0 -24 4.5 -39t13 -22.5t21 -10t29.5 -2.5h54q16 0 28.5 2.5t21.5 10t13.5 22.5t4.5 39v571h66v-569q0 -42 -8.5 -68t-25.5 -40.5t-43.5 -19.5t-63.5 -5h-41q-37 0 -63.5 5t-44 19.5t-25.5 40.5t-8 68v569h67z" />
    <glyph glyph-name="Ucircumflex" unicode="&#xdb;" horiz-adv-x="409" 
d="M174 826h64l66 -82h-43l-55 55l-55 -55h-43zM110 700v-571q0 -24 4.5 -39t13 -22.5t21 -10t29.5 -2.5h54q16 0 28.5 2.5t21.5 10t13.5 22.5t4.5 39v571h66v-569q0 -42 -8.5 -68t-25.5 -40.5t-43.5 -19.5t-63.5 -5h-41q-37 0 -63.5 5t-44 19.5t-25.5 40.5t-8 68v569h67z
" />
    <glyph glyph-name="Udieresis" unicode="&#xdc;" horiz-adv-x="409" 
d="M120 826h44v-71h-44v71zM248 826h44v-71h-44v71zM110 700v-571q0 -24 4.5 -39t13 -22.5t21 -10t29.5 -2.5h54q16 0 28.5 2.5t21.5 10t13.5 22.5t4.5 39v571h66v-569q0 -42 -8.5 -68t-25.5 -40.5t-43.5 -19.5t-63.5 -5h-41q-37 0 -63.5 5t-44 19.5t-25.5 40.5t-8 68v569
h67z" />
    <glyph glyph-name="Yacute" unicode="&#xdd;" horiz-adv-x="390" 
d="M162 283l-153 417h67l118 -339l120 339h67l-153 -417v-283h-66v283zM212 826h66l-70 -82h-43z" />
    <glyph glyph-name="Thorn" unicode="&#xde;" horiz-adv-x="364" 
d="M46 700h67v-124h104q34 0 58 -5t39.5 -18t22.5 -36t7 -60v-206q0 -37 -7 -60.5t-22.5 -36.5t-39.5 -17.5t-58 -4.5h-104v-132h-67v700zM113 520v-332h104q13 0 24 2t19.5 9t13 19.5t4.5 32.5v206q0 20 -4.5 32.5t-13 19t-19.5 9t-24 2.5h-104z" />
    <glyph glyph-name="germandbls" unicode="&#xdf;" horiz-adv-x="397" 
d="M188 647q-15 0 -27.5 -2t-21.5 -9t-14 -20t-5 -35v-581h-63v506l-50 8v38h52v43q0 28 9 48t24.5 33t36 18.5t43.5 5.5h39q36 0 61 -5t41.5 -19t24 -38.5t7.5 -63.5v-89q0 -54 -16.5 -77t-52.5 -29q42 -4 63.5 -26.5t21.5 -81.5v-144q0 -43 -7.5 -68t-24 -38t-41.5 -17
t-61 -4h-67v50h70q15 0 27.5 2.5t21.5 10t14 21t5 35.5v161q0 22 -6 35.5t-15.5 21t-22.5 10t-27 2.5h-67v56h54q15 0 27.5 2.5t21.5 10t14 21.5t5 36v106q0 22 -5 35t-14 20t-21.5 9t-27.5 2h-26v0z" />
    <glyph glyph-name="agrave" unicode="&#xe0;" horiz-adv-x="363" 
d="M179 501q-12 0 -23 -1.5t-19.5 -7.5t-13 -17.5t-4.5 -31.5v-45h-61v42q0 33 5.5 54.5t19 34.5t36.5 19t57 6h22q34 0 57 -5.5t37.5 -18.5t20.5 -35t6 -55v-440q-32 -1 -60 -1q-24 -1 -48 -1h-38h-37q-45 0 -72.5 23t-27.5 74v163q0 51 27.5 73.5t72.5 22.5h119v87
q0 21 -4.5 33t-12.5 18t-18.5 7.5t-23.5 1.5h-17zM99 105q0 -23 12 -37t34 -14h110v245h-110q-21 0 -33.5 -13t-12.5 -36v-145zM226 597h-43l-69 82h66z" />
    <glyph glyph-name="aacute" unicode="&#xe1;" horiz-adv-x="363" 
d="M179 501q-12 0 -23 -1.5t-19.5 -7.5t-13 -17.5t-4.5 -31.5v-45h-61v42q0 33 5.5 54.5t19 34.5t36.5 19t57 6h22q34 0 57 -5.5t37.5 -18.5t20.5 -35t6 -55v-440q-32 -1 -60 -1q-24 -1 -48 -1h-38h-37q-45 0 -72.5 23t-27.5 74v163q0 51 27.5 73.5t72.5 22.5h119v87
q0 21 -4.5 33t-12.5 18t-18.5 7.5t-23.5 1.5h-17zM99 105q0 -23 12 -37t34 -14h110v245h-110q-21 0 -33.5 -13t-12.5 -36v-145zM196 679h66l-70 -82h-43z" />
    <glyph glyph-name="acircumflex" unicode="&#xe2;" horiz-adv-x="363" 
d="M179 501q-12 0 -23 -1.5t-19.5 -7.5t-13 -17.5t-4.5 -31.5v-45h-61v42q0 33 5.5 54.5t19 34.5t36.5 19t57 6h22q34 0 57 -5.5t37.5 -18.5t20.5 -35t6 -55v-440q-32 -1 -60 -1q-24 -1 -48 -1h-38h-37q-45 0 -72.5 23t-27.5 74v163q0 51 27.5 73.5t72.5 22.5h119v87
q0 21 -4.5 33t-12.5 18t-18.5 7.5t-23.5 1.5h-17zM99 105q0 -23 12 -37t34 -14h110v245h-110q-21 0 -33.5 -13t-12.5 -36v-145zM152 679h64l66 -82h-43l-55 55l-55 -55h-43z" />
    <glyph glyph-name="atilde" unicode="&#xe3;" horiz-adv-x="363" 
d="M179 501q-12 0 -23 -1.5t-19.5 -7.5t-13 -17.5t-4.5 -31.5v-45h-61v42q0 33 5.5 54.5t19 34.5t36.5 19t57 6h22q34 0 57 -5.5t37.5 -18.5t20.5 -35t6 -55v-440q-32 -1 -60 -1q-24 -1 -48 -1h-38h-37q-45 0 -72.5 23t-27.5 74v163q0 51 27.5 73.5t72.5 22.5h119v87
q0 21 -4.5 33t-12.5 18t-18.5 7.5t-23.5 1.5h-17zM99 105q0 -23 12 -37t34 -14h110v245h-110q-21 0 -33.5 -13t-12.5 -36v-145zM130 653l-2 -47h-30l2 72h31l107 -40l3 39h29l-2 -73h-30z" />
    <glyph glyph-name="adieresis" unicode="&#xe4;" horiz-adv-x="363" 
d="M179 501q-12 0 -23 -1.5t-19.5 -7.5t-13 -17.5t-4.5 -31.5v-45h-61v42q0 33 5.5 54.5t19 34.5t36.5 19t57 6h22q34 0 57 -5.5t37.5 -18.5t20.5 -35t6 -55v-440q-32 -1 -60 -1q-24 -1 -48 -1h-38h-37q-45 0 -72.5 23t-27.5 74v163q0 51 27.5 73.5t72.5 22.5h119v87
q0 21 -4.5 33t-12.5 18t-18.5 7.5t-23.5 1.5h-17zM99 105q0 -23 12 -37t34 -14h110v245h-110q-21 0 -33.5 -13t-12.5 -36v-145zM97 679h44v-71h-44v71zM225 679h44v-71h-44v71z" />
    <glyph glyph-name="aring" unicode="&#xe5;" horiz-adv-x="363" 
d="M179 501q-12 0 -23 -1.5t-19.5 -7.5t-13 -17.5t-4.5 -31.5v-45h-61v42q0 33 5.5 54.5t19 34.5t36.5 19t57 6h22q34 0 57 -5.5t37.5 -18.5t20.5 -35t6 -55v-440q-32 -1 -60 -1q-24 -1 -48 -1h-38h-37q-45 0 -72.5 23t-27.5 74v163q0 51 27.5 73.5t72.5 22.5h119v87
q0 21 -4.5 33t-12.5 18t-18.5 7.5t-23.5 1.5h-17zM99 105q0 -23 12 -37t34 -14h110v245h-110q-21 0 -33.5 -13t-12.5 -36v-145zM186 710q34 0 45.5 -12.5t11.5 -41.5v-13q0 -29 -11.5 -41.5t-45.5 -12.5h-15q-33 0 -45 12.5t-12 41.5v13q0 29 12 41.5t45 12.5h15zM172 688
q-21 0 -27 -6t-6 -24v-16q0 -20 6.5 -25.5t26.5 -5.5h13q20 0 27 5.5t7 25.5v16q0 18 -6 24t-28 6h-13z" />
    <glyph glyph-name="ae" unicode="&#xe6;" horiz-adv-x="586" 
d="M420 554q34 0 58 -5.5t38 -18.5t20.5 -35t6.5 -55v-199l-221 -1v-129q0 -40 16.5 -50.5t42.5 -10.5h47q26 0 42 11t16 51v57h59v-56q0 -32 -6 -54t-20.5 -35.5t-37.5 -19.5t-57 -6h-43q-44 0 -72.5 8t-39.5 40q-8 -6 -17.5 -14.5t-21.5 -16t-26.5 -12.5t-30.5 -5h-37
q-45 0 -72.5 23t-27.5 74v150q0 51 27.5 74t72.5 23h122v102q0 37 -16.5 47.5t-40.5 10.5h-29q-15 0 -26.5 -2t-19.5 -8.5t-12.5 -18.5t-4.5 -33v-42h-57v42q0 33 6 54.5t19.5 35t36.5 19t58 5.5h29q32 0 55 -7.5t34 -33.5q12 26 35.5 33.5t55.5 7.5h39zM259 95q-1 4 -1 8v9
v179h-111q-22 0 -35 -16t-13 -38v-132q0 -23 13 -37t35 -14h33q11 0 22.5 4.5t22 11t19.5 13.5t15 12zM381 504q-25 0 -42 -10.5t-17 -46.5v-156h158v151q0 40 -16.5 51t-43.5 11h-39z" />
    <glyph glyph-name="ccedilla" unicode="&#xe7;" horiz-adv-x="373" 
d="M206 555q35 0 58.5 -5.5t38 -19t21 -35.5t6.5 -55v-90h-66v90q0 39 -16 49.5t-42 10.5h-39q-26 0 -42.5 -10.5t-16.5 -49.5v-326q0 -39 16.5 -50t42.5 -11h39q26 0 42 11t16 50v106h66v-107q0 -33 -6.5 -55t-21 -35.5t-38 -19t-58.5 -5.5h-9l-24 -112h-50l38 112
q-33 0 -56 6t-37 19.5t-20 35.5t-6 54v327q0 33 6.5 55t21 35.5t38.5 19t59 5.5h39z" />
    <glyph glyph-name="egrave" unicode="&#xe8;" horiz-adv-x="370" 
d="M205 555q35 0 58.5 -5.5t38 -19t21 -35.5t6.5 -55v-189l-221 -2v-135q0 -40 16.5 -50.5t42.5 -10.5h42q25 0 41.5 10.5t16.5 50.5v55h63v-56q0 -65 -27.5 -90t-97.5 -25h-38q-35 0 -59 5.5t-38.5 19t-21 35.5t-6.5 55v327q0 33 6.5 55t21 35.5t38.5 19t59 5.5h38z
M167 500q-26 0 -42.5 -11t-16.5 -49v-135h156v135q0 38 -16.5 49t-42.5 11h-38zM220 597h-43l-69 82h66z" />
    <glyph glyph-name="eacute" unicode="&#xe9;" horiz-adv-x="370" 
d="M202 679h66l-70 -82h-43zM205 555q35 0 58.5 -5.5t38 -19t21 -35.5t6.5 -55v-189l-221 -2v-135q0 -40 16.5 -50.5t42.5 -10.5h42q25 0 41.5 10.5t16.5 50.5v55h63v-56q0 -65 -27.5 -90t-97.5 -25h-38q-35 0 -59 5.5t-38.5 19t-21 35.5t-6.5 55v327q0 33 6.5 55t21 35.5
t38.5 19t59 5.5h38zM167 500q-26 0 -42.5 -11t-16.5 -49v-135h156v135q0 38 -16.5 49t-42.5 11h-38z" />
    <glyph glyph-name="ecircumflex" unicode="&#xea;" horiz-adv-x="370" 
d="M154 679h64l66 -82h-43l-55 55l-55 -55h-43zM205 555q35 0 58.5 -5.5t38 -19t21 -35.5t6.5 -55v-189l-221 -2v-135q0 -40 16.5 -50.5t42.5 -10.5h42q25 0 41.5 10.5t16.5 50.5v55h63v-56q0 -65 -27.5 -90t-97.5 -25h-38q-35 0 -59 5.5t-38.5 19t-21 35.5t-6.5 55v327
q0 33 6.5 55t21 35.5t38.5 19t59 5.5h38zM167 500q-26 0 -42.5 -11t-16.5 -49v-135h156v135q0 38 -16.5 49t-42.5 11h-38z" />
    <glyph glyph-name="edieresis" unicode="&#xeb;" horiz-adv-x="370" 
d="M100 679h44v-71h-44v71zM228 679h44v-71h-44v71zM205 555q35 0 58.5 -5.5t38 -19t21 -35.5t6.5 -55v-189l-221 -2v-135q0 -40 16.5 -50.5t42.5 -10.5h42q25 0 41.5 10.5t16.5 50.5v55h63v-56q0 -65 -27.5 -90t-97.5 -25h-38q-35 0 -59 5.5t-38.5 19t-21 35.5t-6.5 55v327
q0 33 6.5 55t21 35.5t38.5 19t59 5.5h38zM167 500q-26 0 -42.5 -11t-16.5 -49v-135h156v135q0 38 -16.5 49t-42.5 11h-38z" />
    <glyph glyph-name="igrave" unicode="&#xec;" horiz-adv-x="154" 
d="M46 552h63v-552h-63v552zM101 597h-43l-69 82h66z" />
    <glyph glyph-name="iacute" unicode="&#xed;" horiz-adv-x="154" 
d="M101 679h66l-70 -82h-43zM46 552h63v-552h-63v552z" />
    <glyph glyph-name="icircumflex" unicode="&#xee;" horiz-adv-x="154" 
d="M46 679h64l66 -82h-43l-55 55l-55 -55h-43zM46 552h63v-552h-63v552z" />
    <glyph glyph-name="idieresis" unicode="&#xef;" horiz-adv-x="154" 
d="M-8 679h44v-71h-44v71zM120 679h44v-71h-44v71zM46 552h63v-552h-63v552z" />
    <glyph glyph-name="eth" unicode="&#xf0;" horiz-adv-x="374" 
d="M166 -2q-35 0 -58.5 5.5t-37.5 18.5t-20.5 34.5t-6.5 53.5v348q0 51 27.5 73.5t72.5 22.5q32 -1 58 -1q23 0 43 -0.5t25 -0.5v8q0 20 -4 40.5t-12 31.5l-62 -24l-12 27l60 22q-11 14 -24.5 26t-30.5 27l42 15q16 -12 31.5 -23t29.5 -25l56 21l12 -27l-50 -19
q12 -17 19.5 -38.5t7.5 -50.5v-453q0 -32 -6.5 -53.5t-20.5 -34.5t-38 -18.5t-58 -5.5h-43zM209 51q26 0 43 11t17 50v386h-61q-25 0 -54 1q-22 0 -35 -14t-13 -37v-336q0 -39 17 -50t43 -11h43z" />
    <glyph glyph-name="ntilde" unicode="&#xf1;" horiz-adv-x="376" 
d="M269 448q0 23 -13 37t-35 14h-113v-499h-63v552q27 0 53 1q23 0 48.5 0.5t47.5 0.5h38q46 0 73 -22.5t27 -73.5v-458h-63v448zM133 653l-2 -47h-30l2 72h31l107 -40l3 39h29l-2 -73h-30z" />
    <glyph glyph-name="ograve" unicode="&#xf2;" horiz-adv-x="374" 
d="M209 554q34 0 58 -5.5t38 -18.5t20.5 -35t6.5 -55v-328q0 -33 -6.5 -54.5t-20.5 -35t-38 -19t-58 -5.5h-43q-35 0 -58.5 5.5t-37.5 19t-20.5 35t-6.5 54.5v328q0 33 6.5 55t20.5 35t37.5 18.5t58.5 5.5h43zM209 51q26 0 43 11t17 51v327q0 20 -4.5 32.5t-12 19t-18.5 8.5
t-24 2h-44q-13 0 -24 -2t-18.5 -8.5t-12 -19t-4.5 -32.5l-1 -327q0 -40 17 -51t43 -11h43zM228 597h-43l-69 82h66z" />
    <glyph glyph-name="oacute" unicode="&#xf3;" horiz-adv-x="374" 
d="M205 679h66l-70 -82h-43zM209 554q34 0 58 -5.5t38 -18.5t20.5 -35t6.5 -55v-328q0 -33 -6.5 -54.5t-20.5 -35t-38 -19t-58 -5.5h-43q-35 0 -58.5 5.5t-37.5 19t-20.5 35t-6.5 54.5v328q0 33 6.5 55t20.5 35t37.5 18.5t58.5 5.5h43zM209 51q26 0 43 11t17 51v327
q0 20 -4.5 32.5t-12 19t-18.5 8.5t-24 2h-44q-13 0 -24 -2t-18.5 -8.5t-12 -19t-4.5 -32.5l-1 -327q0 -40 17 -51t43 -11h43z" />
    <glyph glyph-name="ocircumflex" unicode="&#xf4;" horiz-adv-x="374" 
d="M156 679h64l66 -82h-43l-55 55l-55 -55h-43zM209 554q34 0 58 -5.5t38 -18.5t20.5 -35t6.5 -55v-328q0 -33 -6.5 -54.5t-20.5 -35t-38 -19t-58 -5.5h-43q-35 0 -58.5 5.5t-37.5 19t-20.5 35t-6.5 54.5v328q0 33 6.5 55t20.5 35t37.5 18.5t58.5 5.5h43zM209 51q26 0 43 11
t17 51v327q0 20 -4.5 32.5t-12 19t-18.5 8.5t-24 2h-44q-13 0 -24 -2t-18.5 -8.5t-12 -19t-4.5 -32.5l-1 -327q0 -40 17 -51t43 -11h43z" />
    <glyph glyph-name="otilde" unicode="&#xf5;" horiz-adv-x="374" 
d="M209 554q34 0 58 -5.5t38 -18.5t20.5 -35t6.5 -55v-328q0 -33 -6.5 -54.5t-20.5 -35t-38 -19t-58 -5.5h-43q-35 0 -58.5 5.5t-37.5 19t-20.5 35t-6.5 54.5v328q0 33 6.5 55t20.5 35t37.5 18.5t58.5 5.5h43zM209 51q26 0 43 11t17 51v327q0 20 -4.5 32.5t-12 19t-18.5 8.5
t-24 2h-44q-13 0 -24 -2t-18.5 -8.5t-12 -19t-4.5 -32.5l-1 -327q0 -40 17 -51t43 -11h43zM134 653l-2 -47h-30l2 72h31l107 -40l3 39h29l-2 -73h-30z" />
    <glyph glyph-name="odieresis" unicode="&#xf6;" horiz-adv-x="374" 
d="M102 679h44v-71h-44v71zM230 679h44v-71h-44v71zM209 554q34 0 58 -5.5t38 -18.5t20.5 -35t6.5 -55v-328q0 -33 -6.5 -54.5t-20.5 -35t-38 -19t-58 -5.5h-43q-35 0 -58.5 5.5t-37.5 19t-20.5 35t-6.5 54.5v328q0 33 6.5 55t20.5 35t37.5 18.5t58.5 5.5h43zM209 51
q26 0 43 11t17 51v327q0 20 -4.5 32.5t-12 19t-18.5 8.5t-24 2h-44q-13 0 -24 -2t-18.5 -8.5t-12 -19t-4.5 -32.5l-1 -327q0 -40 17 -51t43 -11h43z" />
    <glyph glyph-name="divide" unicode="&#xf7;" horiz-adv-x="320" 
d="M25 381h273v-45h-273v45zM140 503h44v-65h-44v65zM140 278h44v-65h-44v65z" />
    <glyph glyph-name="oslash" unicode="&#xf8;" horiz-adv-x="374" 
d="M209 554q29 0 54 -5l19 50h35l-23 -61q38 -23 38 -98v-328q0 -33 -6.5 -54.5t-20.5 -35t-38 -19t-58 -5.5h-43q-22 0 -39 2t-31 7l-16 -43h-35l22 60q-24 25 -24 88v328q0 33 6.5 55t20.5 35t37.5 18.5t58.5 5.5h43zM209 51q26 0 43 11t17 51v327q0 7 -0.5 13.5
t-1.5 11.5l-149 -398v-1q8 -9 20.5 -12t27.5 -3h43zM106 127l138 369q-8 4 -16 5t-18 1h-44q-13 0 -24 -2t-18.5 -8.5t-12 -19t-4.5 -32.5z" />
    <glyph glyph-name="ugrave" unicode="&#xf9;" horiz-adv-x="374" 
d="M105 105q0 -23 13 -37t35 -14h113v498h63v-552q-35 -1 -65 -1q-26 -1 -50.5 -1h-32.5h-39q-45 0 -72.5 23t-27.5 74v457h63v-447zM228 597h-43l-69 82h66z" />
    <glyph glyph-name="uacute" unicode="&#xfa;" horiz-adv-x="374" 
d="M105 105q0 -23 13 -37t35 -14h113v498h63v-552q-35 -1 -65 -1q-26 -1 -50.5 -1h-32.5h-39q-45 0 -72.5 23t-27.5 74v457h63v-447zM202 679h66l-70 -82h-43z" />
    <glyph glyph-name="ucircumflex" unicode="&#xfb;" horiz-adv-x="374" 
d="M105 105q0 -23 13 -37t35 -14h113v498h63v-552q-35 -1 -65 -1q-26 -1 -50.5 -1h-32.5h-39q-45 0 -72.5 23t-27.5 74v457h63v-447zM154 679h64l66 -82h-43l-55 55l-55 -55h-43z" />
    <glyph glyph-name="udieresis" unicode="&#xfc;" horiz-adv-x="374" 
d="M105 105q0 -23 13 -37t35 -14h113v498h63v-552q-35 -1 -65 -1q-26 -1 -50.5 -1h-32.5h-39q-45 0 -72.5 23t-27.5 74v457h63v-447zM102 679h44v-71h-44v71zM230 679h44v-71h-44v71z" />
    <glyph glyph-name="yacute" unicode="&#xfd;" horiz-adv-x="339" 
d="M-4 552h68l91 -486h22l85 486h67l-120 -677h-60l22 128h-68zM187 679h66l-70 -82h-43z" />
    <glyph glyph-name="thorn" unicode="&#xfe;" 
d="M45 701h63v-149h132q45 0 69.5 -25t24.5 -76v-343q0 -51 -24.5 -80.5t-69.5 -29.5h-38l-94 2v-116h-63v817zM108 499v-445h115q21 0 34.5 14t13.5 37v343q0 23 -13.5 37t-34.5 14h-115z" />
    <glyph glyph-name="ydieresis" unicode="&#xff;" horiz-adv-x="339" 
d="M-4 552h68l91 -486h22l85 486h67l-120 -677h-60l22 128h-68zM79 679h44v-71h-44v71zM207 679h44v-71h-44v71z" />
    <glyph glyph-name="Amacron" unicode="&#x100;" horiz-adv-x="385" 
d="M392 0h-67l-33 161h-198l-32 -161h-67l139 700h120zM109 224h167l-78 423h-10zM101 805h186v-38h-186v38z" />
    <glyph glyph-name="amacron" unicode="&#x101;" horiz-adv-x="363" 
d="M179 501q-12 0 -23 -1.5t-19.5 -7.5t-13 -17.5t-4.5 -31.5v-45h-61v42q0 33 5.5 54.5t19 34.5t36.5 19t57 6h22q34 0 57 -5.5t37.5 -18.5t20.5 -35t6 -55v-440q-32 -1 -60 -1q-24 -1 -48 -1h-38h-37q-45 0 -72.5 23t-27.5 74v163q0 51 27.5 73.5t72.5 22.5h119v87
q0 21 -4.5 33t-12.5 18t-18.5 7.5t-23.5 1.5h-17zM99 105q0 -23 12 -37t34 -14h110v245h-110q-21 0 -33.5 -13t-12.5 -36v-145zM93 658h186v-38h-186v38z" />
    <glyph glyph-name="Abreve" unicode="&#x102;" horiz-adv-x="385" 
d="M392 0h-67l-33 161h-198l-32 -161h-67l139 700h120zM109 224h167l-78 423h-10zM175 743q-42 0 -60 16t-18 61v10h40v-14q0 -26 12 -33t27 -7h36q15 0 27 7t12 33v14h39v-10q0 -45 -18 -61t-59 -16h-38z" />
    <glyph glyph-name="abreve" unicode="&#x103;" horiz-adv-x="363" 
d="M179 501q-12 0 -23 -1.5t-19.5 -7.5t-13 -17.5t-4.5 -31.5v-45h-61v42q0 33 5.5 54.5t19 34.5t36.5 19t57 6h22q34 0 57 -5.5t37.5 -18.5t20.5 -35t6 -55v-440q-32 -1 -60 -1q-24 -1 -48 -1h-38h-37q-45 0 -72.5 23t-27.5 74v163q0 51 27.5 73.5t72.5 22.5h119v87
q0 21 -4.5 33t-12.5 18t-18.5 7.5t-23.5 1.5h-17zM99 105q0 -23 12 -37t34 -14h110v245h-110q-21 0 -33.5 -13t-12.5 -36v-145zM167 596q-42 0 -60 16t-18 61v10h40v-14q0 -26 12 -33t27 -7h36q15 0 27 7t12 33v14h39v-10q0 -45 -18 -61t-59 -16h-38z" />
    <glyph glyph-name="Aogonek" unicode="&#x104;" horiz-adv-x="385" 
d="M386 -76q0 -26 -9 -40.5t-40 -14.5h-38q-31 0 -42 11.5t-11 37.5v12q0 11 2.5 18.5t7 12.5t12 10t18.5 11l38 22l-32 157h-198l-32 -161h-67l139 700h120l138 -700h-30l-49 -30q-18 -13 -25 -17.5t-7 -18.5v-9q0 -14 4.5 -20t18.5 -6h26q14 0 18 5t4 19v15h34v-14z
M109 224h167l-78 423h-10z" />
    <glyph glyph-name="aogonek" unicode="&#x105;" horiz-adv-x="363" 
d="M324 -68q0 -26 -9 -40.5t-40 -14.5h-38q-31 0 -42 11.5t-11 37.5v12q0 11 2.5 18.5t7 12.5t12 10t18.5 11l15 9q-20 -1 -37.5 -1h-28.5h-37q-45 0 -72.5 23t-27.5 74v163q0 51 27.5 73.5t72.5 22.5h119v87q0 21 -4.5 33t-12.5 18t-18.5 7.5t-23.5 1.5h-17q-12 0 -23 -1.5
t-19.5 -7.5t-13 -17.5t-4.5 -31.5v-45h-61v42q0 33 5.5 54.5t19 34.5t36.5 19t57 6h22q34 0 57 -5.5t37.5 -18.5t20.5 -35t6 -55v-440h-10q-5 0 -11 -0.5t-13 -0.5l-34 -21q-18 -13 -25 -17.5t-7 -18.5v-9q0 -14 4.5 -20t18.5 -6h26q14 0 18 5t4 19v15h34v-14zM99 105
q0 -23 12 -37t34 -14h110v245h-110q-21 0 -33.5 -13t-12.5 -36v-145z" />
    <glyph glyph-name="Cacute" unicode="&#x106;" horiz-adv-x="407" 
d="M227 826h66l-70 -82h-43zM222 702q37 0 64 -5t44.5 -19.5t25.5 -41t8 -68.5v-126h-69v130q0 24 -5.5 38t-15 21.5t-23 9.5t-29.5 2h-37q-16 0 -29.5 -2t-23 -9.5t-15 -21.5t-5.5 -38v-444q0 -24 5.5 -38t15 -21.5t23 -9.5t29.5 -2h37q16 0 29.5 2t23 9.5t15 21.5t5.5 38
v150h69v-146q0 -42 -8 -68t-25.5 -41t-44.5 -20t-64 -5h-37q-38 0 -64.5 5t-44 20t-25.5 41t-8 68v436q0 42 8 68.5t25.5 41t44 19.5t64.5 5h37z" />
    <glyph glyph-name="cacute" unicode="&#x107;" horiz-adv-x="372" 
d="M212 679h66l-70 -82h-43zM206 555q35 0 58.5 -5.5t38 -19t21 -35.5t6.5 -55v-90h-66v90q0 39 -16 49.5t-42 10.5h-39q-26 0 -42.5 -10.5t-16.5 -49.5v-326q0 -39 16.5 -50t42.5 -11h39q26 0 42 11t16 50v106h66v-107q0 -33 -6.5 -55t-21 -35.5t-38 -19t-58.5 -5.5h-39
q-35 0 -59 5.5t-38.5 19t-21 35.5t-6.5 55v327q0 33 6.5 55t21 35.5t38.5 19t59 5.5h39z" />
    <glyph glyph-name="Cdotaccent" unicode="&#x10a;" horiz-adv-x="407" 
d="M222 702q37 0 64 -5t44.5 -19.5t25.5 -41t8 -68.5v-126h-69v130q0 24 -5.5 38t-15 21.5t-23 9.5t-29.5 2h-37q-16 0 -29.5 -2t-23 -9.5t-15 -21.5t-5.5 -38v-444q0 -24 5.5 -38t15 -21.5t23 -9.5t29.5 -2h37q16 0 29.5 2t23 9.5t15 21.5t5.5 38v150h69v-146q0 -42 -8 -68
t-25.5 -41t-44.5 -20t-64 -5h-37q-38 0 -64.5 5t-44 20t-25.5 41t-8 68v436q0 42 8 68.5t25.5 41t44 19.5t64.5 5h37zM189 828h44v-65h-44v65z" />
    <glyph glyph-name="cdotaccent" unicode="&#x10b;" horiz-adv-x="372" 
d="M206 555q35 0 58.5 -5.5t38 -19t21 -35.5t6.5 -55v-90h-66v90q0 39 -16 49.5t-42 10.5h-39q-26 0 -42.5 -10.5t-16.5 -49.5v-326q0 -39 16.5 -50t42.5 -11h39q26 0 42 11t16 50v106h66v-107q0 -33 -6.5 -55t-21 -35.5t-38 -19t-58.5 -5.5h-39q-35 0 -59 5.5t-38.5 19
t-21 35.5t-6.5 55v327q0 33 6.5 55t21 35.5t38.5 19t59 5.5h39zM168 681h44v-65h-44v65z" />
    <glyph glyph-name="Ccaron" unicode="&#x10c;" horiz-adv-x="407" 
d="M111 826h43l55 -55l55 55h43l-66 -82h-64zM222 702q37 0 64 -5t44.5 -19.5t25.5 -41t8 -68.5v-126h-69v130q0 24 -5.5 38t-15 21.5t-23 9.5t-29.5 2h-37q-16 0 -29.5 -2t-23 -9.5t-15 -21.5t-5.5 -38v-444q0 -24 5.5 -38t15 -21.5t23 -9.5t29.5 -2h37q16 0 29.5 2t23 9.5
t15 21.5t5.5 38v150h69v-146q0 -42 -8 -68t-25.5 -41t-44.5 -20t-64 -5h-37q-38 0 -64.5 5t-44 20t-25.5 41t-8 68v436q0 42 8 68.5t25.5 41t44 19.5t64.5 5h37z" />
    <glyph glyph-name="ccaron" unicode="&#x10d;" horiz-adv-x="372" 
d="M94 679h43l55 -55l55 55h43l-66 -82h-64zM206 555q35 0 58.5 -5.5t38 -19t21 -35.5t6.5 -55v-90h-66v90q0 39 -16 49.5t-42 10.5h-39q-26 0 -42.5 -10.5t-16.5 -49.5v-326q0 -39 16.5 -50t42.5 -11h39q26 0 42 11t16 50v106h66v-107q0 -33 -6.5 -55t-21 -35.5t-38 -19
t-58.5 -5.5h-39q-35 0 -59 5.5t-38.5 19t-21 35.5t-6.5 55v327q0 33 6.5 55t21 35.5t38.5 19t59 5.5h39z" />
    <glyph glyph-name="Dcaron" unicode="&#x10e;" horiz-adv-x="396" 
d="M97 826h43l55 -55l55 55h43l-66 -82h-64zM46 700h174q36 0 61 -5t41.5 -19t24 -38.5t7.5 -63.5v-447q0 -39 -7.5 -63.5t-24 -39t-41.5 -19.5t-61 -5h-174v700zM114 643l-1 -586h107q15 0 27.5 2t21.5 9t14 20t5 35v456q0 22 -5 34.5t-14 19t-21.5 8.5t-27.5 2h-106z" />
    <glyph glyph-name="dcaron" unicode="&#x10f;" horiz-adv-x="379" 
d="M43 458q0 51 27.5 72.5t72.5 21.5h126v164h63v-716q-31 -1 -59 -1q-24 -1 -49.5 -1h-41.5h-39q-45 0 -72.5 23t-27.5 74v363zM269 499h-115q-22 0 -35 -14t-13 -37v-343q0 -23 13 -37t35 -14h115v445zM363 716h40v-69q0 -31 -9 -46.5t-23 -32.5l-13 10q7 10 11 16.5
t6 12.5t2.5 13.5t0.5 21.5h-15v74z" />
    <glyph glyph-name="Dcroat" unicode="&#x110;" horiz-adv-x="405" 
d="M2 381h52v319h174q36 0 61 -5t41.5 -19t24 -38.5t7.5 -63.5v-447q0 -39 -7.5 -63.5t-24 -39t-41.5 -19.5t-61 -5h-174v334h-52v47zM122 643l-1 -262h71v-47h-71v-277h107q15 0 27.5 2t21.5 9t14 20t5 35v456q0 22 -5 34.5t-14 19t-21.5 8.5t-27.5 2h-106z" />
    <glyph glyph-name="dcroat" unicode="&#x111;" horiz-adv-x="381" 
d="M178 664h91v52h63v-52h37v-31h-37v-633q-31 -1 -59 -1q-24 -1 -49.5 -1h-41.5h-39q-45 0 -72.5 23t-27.5 74v363q0 51 27.5 72.5t72.5 21.5h126v81h-91v31zM269 499h-115q-22 0 -35 -14t-13 -37v-343q0 -23 13 -37t35 -14h115v445z" />
    <glyph glyph-name="Emacron" unicode="&#x112;" horiz-adv-x="342" 
d="M87 805h186v-38h-186v38zM114 57h201v-57h-268v700h268v-57h-201v-256h188v-57h-188v-273z" />
    <glyph glyph-name="emacron" unicode="&#x113;" horiz-adv-x="370" 
d="M205 555q35 0 58.5 -5.5t38 -19t21 -35.5t6.5 -55v-189l-221 -2v-135q0 -40 16.5 -50.5t42.5 -10.5h42q25 0 41.5 10.5t16.5 50.5v55h63v-56q0 -65 -27.5 -90t-97.5 -25h-38q-35 0 -59 5.5t-38.5 19t-21 35.5t-6.5 55v327q0 33 6.5 55t21 35.5t38.5 19t59 5.5h38z
M167 500q-26 0 -42.5 -11t-16.5 -49v-135h156v135q0 38 -16.5 49t-42.5 11h-38zM93 658h186v-38h-186v38z" />
    <glyph glyph-name="Ebreve" unicode="&#x114;" horiz-adv-x="342" 
d="M114 57h201v-57h-268v700h268v-57h-201v-256h188v-57h-188v-273zM164 743q-42 0 -60 16t-18 61v10h40v-14q0 -26 12 -33t27 -7h36q15 0 27 7t12 33v14h39v-10q0 -45 -18 -61t-59 -16h-38z" />
    <glyph glyph-name="ebreve" unicode="&#x115;" horiz-adv-x="370" 
d="M205 555q35 0 58.5 -5.5t38 -19t21 -35.5t6.5 -55v-189l-221 -2v-135q0 -40 16.5 -50.5t42.5 -10.5h42q25 0 41.5 10.5t16.5 50.5v55h63v-56q0 -65 -27.5 -90t-97.5 -25h-38q-35 0 -59 5.5t-38.5 19t-21 35.5t-6.5 55v327q0 33 6.5 55t21 35.5t38.5 19t59 5.5h38z
M167 500q-26 0 -42.5 -11t-16.5 -49v-135h156v135q0 38 -16.5 49t-42.5 11h-38zM167 596q-42 0 -60 16t-18 61v10h40v-14q0 -26 12 -33t27 -7h36q15 0 27 7t12 33v14h39v-10q0 -45 -18 -61t-59 -16h-38z" />
    <glyph glyph-name="Edotaccent" unicode="&#x116;" horiz-adv-x="342" 
d="M114 57h201v-57h-268v700h268v-57h-201v-256h188v-57h-188v-273zM163 828h44v-65h-44v65z" />
    <glyph glyph-name="edotaccent" unicode="&#x117;" horiz-adv-x="370" 
d="M205 555q35 0 58.5 -5.5t38 -19t21 -35.5t6.5 -55v-189l-221 -2v-135q0 -40 16.5 -50.5t42.5 -10.5h42q25 0 41.5 10.5t16.5 50.5v55h63v-56q0 -65 -27.5 -90t-97.5 -25h-38q-35 0 -59 5.5t-38.5 19t-21 35.5t-6.5 55v327q0 33 6.5 55t21 35.5t38.5 19t59 5.5h38z
M167 500q-26 0 -42.5 -11t-16.5 -49v-135h156v135q0 38 -16.5 49t-42.5 11h-38zM164 681h44v-65h-44v65z" />
    <glyph glyph-name="Eogonek" unicode="&#x118;" horiz-adv-x="342" 
d="M114 57h201v-57l-49 -30q-18 -13 -25 -17.5t-7 -18.5v-9q0 -14 4.5 -20t18.5 -6h26q14 0 18 5t4 19v15h34v-14q0 -26 -9 -40.5t-40 -14.5h-38q-31 0 -42 11.5t-11 37.5v12q0 11 2.5 18.5t7 12.5t12 10t18.5 11q4 2 14 7.5t18 10.5h-224v700h268v-57h-201v-256h188v-57
h-188v-273z" />
    <glyph glyph-name="eogonek" unicode="&#x119;" horiz-adv-x="370" 
d="M328 -77q0 -26 -9 -40.5t-40 -14.5h-38q-31 0 -42 11.5t-11 37.5v12q0 11 2.5 18.5t7 12.5t12 10t18.5 11q2 1 9 5l14 8q8 4 17 10h36v-5l-49 -30q-18 -13 -25 -17.5t-7 -18.5v-9q0 -14 4.5 -20t18.5 -6h26q14 0 18 5t4 19v15h34v-14zM205 555q35 0 58.5 -5.5t38 -19
t21 -35.5t6.5 -55v-189l-221 -2v-135q0 -40 16.5 -50.5t42.5 -10.5h42q25 0 41.5 10.5t16.5 50.5v55h63v-56q0 -65 -27.5 -90t-97.5 -25h-38q-35 0 -59 5.5t-38.5 19t-21 35.5t-6.5 55v327q0 33 6.5 55t21 35.5t38.5 19t59 5.5h38zM167 500q-26 0 -42.5 -11t-16.5 -49v-135
h156v135q0 38 -16.5 49t-42.5 11h-38z" />
    <glyph glyph-name="Ecaron" unicode="&#x11a;" horiz-adv-x="342" 
d="M88 826h43l55 -55l55 55h43l-66 -82h-64zM114 57h201v-57h-268v700h268v-57h-201v-256h188v-57h-188v-273z" />
    <glyph glyph-name="ecaron" unicode="&#x11b;" horiz-adv-x="370" 
d="M88 679h43l55 -55l55 55h43l-66 -82h-64zM205 555q35 0 58.5 -5.5t38 -19t21 -35.5t6.5 -55v-189l-221 -2v-135q0 -40 16.5 -50.5t42.5 -10.5h42q25 0 41.5 10.5t16.5 50.5v55h63v-56q0 -65 -27.5 -90t-97.5 -25h-38q-35 0 -59 5.5t-38.5 19t-21 35.5t-6.5 55v327
q0 33 6.5 55t21 35.5t38.5 19t59 5.5h38zM167 500q-26 0 -42.5 -11t-16.5 -49v-135h156v135q0 38 -16.5 49t-42.5 11h-38z" />
    <glyph glyph-name="gcircumflex" unicode="&#x11d;" 
d="M162 679h64l66 -82h-43l-55 55l-55 -55h-43zM269 52h-126q-45 0 -72.5 23t-27.5 73v303q0 51 30.5 77t76.5 26h33q8 0 32.5 -0.5t50.5 -0.5q30 -1 66 -1v-557q0 -59 -26.5 -88t-96.5 -29h-35q-35 0 -58 6t-37 20.5t-20 38.5t-6 60v21h61v-34q0 -20 4.5 -31t12 -16.5
t18.5 -7t24 -1.5h36q26 0 43 10.5t17 49.5v58zM269 499h-115q-22 0 -35 -14t-13 -37v-290q0 -23 13 -37t35 -14h115v392z" />
    <glyph glyph-name="Gbreve" unicode="&#x11e;" horiz-adv-x="404" 
d="M219 702q37 0 64 -5t44 -19.5t25.5 -41t8.5 -68.5v-86h-69v90q0 24 -5.5 38t-15.5 21.5t-23.5 9.5t-28.5 2h-34q-15 0 -28.5 -2t-23.5 -9.5t-15.5 -21.5t-5.5 -38v-447q0 -24 5.5 -38t15 -20.5t23 -8t29.5 -1.5h34q16 0 29.5 1.5t23 8t15 20.5t5.5 38v175h-93v58h162
v-226q0 -42 -8.5 -68t-25.5 -41t-44 -20t-64 -5h-34q-38 0 -64.5 5t-44 20t-25.5 41t-8 68v436q0 42 8 68.5t25.5 41t44 19.5t64.5 5h34zM181 743q-42 0 -60 16t-18 61v10h40v-14q0 -26 12 -33t27 -7h36q15 0 27 7t12 33v14h39v-10q0 -45 -18 -61t-59 -16h-38z" />
    <glyph glyph-name="gbreve" unicode="&#x11f;" 
d="M269 52h-126q-45 0 -72.5 23t-27.5 73v303q0 51 30.5 77t76.5 26h33q8 0 32.5 -0.5t50.5 -0.5q30 -1 66 -1v-557q0 -59 -26.5 -88t-96.5 -29h-35q-35 0 -58 6t-37 20.5t-20 38.5t-6 60v21h61v-34q0 -20 4.5 -31t12 -16.5t18.5 -7t24 -1.5h36q26 0 43 10.5t17 49.5v58z
M269 499h-115q-22 0 -35 -14t-13 -37v-290q0 -23 13 -37t35 -14h115v392zM170 596q-42 0 -60 16t-18 61v10h40v-14q0 -26 12 -33t27 -7h36q15 0 27 7t12 33v14h39v-10q0 -45 -18 -61t-59 -16h-38z" />
    <glyph glyph-name="Gdotaccent" unicode="&#x120;" horiz-adv-x="404" 
d="M219 702q37 0 64 -5t44 -19.5t25.5 -41t8.5 -68.5v-86h-69v90q0 24 -5.5 38t-15.5 21.5t-23.5 9.5t-28.5 2h-34q-15 0 -28.5 -2t-23.5 -9.5t-15.5 -21.5t-5.5 -38v-447q0 -24 5.5 -38t15 -20.5t23 -8t29.5 -1.5h34q16 0 29.5 1.5t23 8t15 20.5t5.5 38v175h-93v58h162
v-226q0 -42 -8.5 -68t-25.5 -41t-44 -20t-64 -5h-34q-38 0 -64.5 5t-44 20t-25.5 41t-8 68v436q0 42 8 68.5t25.5 41t44 19.5t64.5 5h34zM178 828h44v-65h-44v65z" />
    <glyph glyph-name="gdotaccent" unicode="&#x121;" 
d="M269 52h-126q-45 0 -72.5 23t-27.5 73v303q0 51 30.5 77t76.5 26h33q8 0 32.5 -0.5t50.5 -0.5q30 -1 66 -1v-557q0 -59 -26.5 -88t-96.5 -29h-35q-35 0 -58 6t-37 20.5t-20 38.5t-6 60v21h61v-34q0 -20 4.5 -31t12 -16.5t18.5 -7t24 -1.5h36q26 0 43 10.5t17 49.5v58z
M269 499h-115q-22 0 -35 -14t-13 -37v-290q0 -23 13 -37t35 -14h115v392zM167 681h44v-65h-44v65z" />
    <glyph glyph-name="uni0122" unicode="&#x122;" horiz-adv-x="404" 
d="M180 -37h44v-68q0 -17 -2 -28.5t-6 -21.5t-10 -19t-14 -20l-18 10q6 12 10.5 19.5t6.5 14.5t3 15.5t1 22.5h-15v75zM219 702q37 0 64 -5t44 -19.5t25.5 -41t8.5 -68.5v-86h-69v90q0 24 -5.5 38t-15.5 21.5t-23.5 9.5t-28.5 2h-34q-15 0 -28.5 -2t-23.5 -9.5t-15.5 -21.5
t-5.5 -38v-447q0 -24 5.5 -38t15 -20.5t23 -8t29.5 -1.5h34q16 0 29.5 1.5t23 8t15 20.5t5.5 38v175h-93v58h162v-226q0 -42 -8.5 -68t-25.5 -41t-44 -20t-64 -5h-34q-38 0 -64.5 5t-44 20t-25.5 41t-8 68v436q0 42 8 68.5t25.5 41t44 19.5t64.5 5h34z" />
    <glyph glyph-name="uni0123" unicode="&#x123;" 
d="M210 598h-44v68q0 16 2 28t6 22t10 19t14 20l18 -10q-6 -12 -10.5 -19.5t-6.5 -14.5t-3 -15.5t-1 -22.5h15v-75zM269 52h-126q-45 0 -72.5 23t-27.5 73v303q0 51 30.5 77t76.5 26h33q8 0 32.5 -0.5t50.5 -0.5q30 -1 66 -1v-557q0 -59 -26.5 -88t-96.5 -29h-35
q-35 0 -58 6t-37 20.5t-20 38.5t-6 60v21h61v-34q0 -20 4.5 -31t12 -16.5t18.5 -7t24 -1.5h36q26 0 43 10.5t17 49.5v58zM269 499h-115q-22 0 -35 -14t-13 -37v-290q0 -23 13 -37t35 -14h115v392z" />
    <glyph glyph-name="Hbar" unicode="&#x126;" horiz-adv-x="417" 
d="M1 595h49v105h67v-105h183v105h67v-105h49v-44h-49v-551h-67v324h-183v-324h-67v551h-49v44zM300 387v164h-183v-164h183z" />
    <glyph glyph-name="hbar" unicode="&#x127;" horiz-adv-x="380" 
d="M1 648h47v68h63v-68h90v-37h-90v-59h124q46 0 73 -21.5t27 -72.5v-458h-63v448q0 23 -13 37t-35 14h-113v-499h-63v611h-47v37z" />
    <glyph glyph-name="Imacron" unicode="&#x12a;" horiz-adv-x="161" 
d="M47 700h67v-700h-67v700zM-12 805h186v-38h-186v38z" />
    <glyph glyph-name="imacron" unicode="&#x12b;" horiz-adv-x="154" 
d="M46 552h63v-552h-63v552zM-15 658h186v-38h-186v38z" />
    <glyph glyph-name="Ibreve" unicode="&#x12c;" horiz-adv-x="161" 
d="M47 700h67v-700h-67v700zM63 743q-42 0 -60 16t-18 61v10h40v-14q0 -26 12 -33t27 -7h36q15 0 27 7t12 33v14h39v-10q0 -45 -18 -61t-59 -16h-38z" />
    <glyph glyph-name="ibreve" unicode="&#x12d;" horiz-adv-x="154" 
d="M46 552h63v-552h-63v552zM59 596q-42 0 -60 16t-18 61v10h40v-14q0 -26 12 -33t27 -7h36q15 0 27 7t12 33v14h39v-10q0 -45 -18 -61t-59 -16h-38z" />
    <glyph glyph-name="Iogonek" unicode="&#x12e;" horiz-adv-x="161" 
d="M47 700h67v-700h-11l-49 -30q-18 -13 -25 -17.5t-7 -18.5v-9q0 -14 4.5 -20t18.5 -6h26q14 0 18 5t4 19v15h34v-14q0 -26 -9 -40.5t-40 -14.5h-38q-31 0 -42 11.5t-11 37.5v12q0 11 2.5 18.5t7 12.5t12 10t18.5 11q4 2 14 7.5t18 10.5h-12v700z" />
    <glyph glyph-name="iogonek" unicode="&#x12f;" horiz-adv-x="154" 
d="M46 552h63v-552h-6l-49 -30q-18 -13 -25 -17.5t-7 -18.5v-9q0 -14 4.5 -20t18.5 -6h26q14 0 18 5t4 19v15h34v-14q0 -26 -9 -40.5t-40 -14.5h-38q-31 0 -42 11.5t-11 37.5v12q0 11 2.5 18.5t7 12.5t12 10t18.5 11q4 2 14 7.5t18 10.5h-13v552zM44 696h66v-83h-66v83z" />
    <glyph glyph-name="Idotaccent" unicode="&#x130;" horiz-adv-x="161" 
d="M47 700h67v-700h-67v700zM59 828h44v-65h-44v65z" />
    <glyph glyph-name="dotlessi" unicode="&#x131;" horiz-adv-x="154" 
d="M46 552h63v-552h-63v552z" />
    <glyph glyph-name="uni0136" unicode="&#x136;" horiz-adv-x="399" 
d="M180 -37h44v-68q0 -17 -2 -28.5t-6 -21.5t-10 -19t-14 -20l-18 10q6 12 10.5 19.5t6.5 14.5t3 15.5t1 22.5h-15v75zM114 0h-67v700h67v-324h85l109 324h70l-120 -351l134 -349h-73l-116 313h-89v-313z" />
    <glyph glyph-name="uni0137" unicode="&#x137;" horiz-adv-x="356" 
d="M159 -37h44v-68q0 -17 -2 -28.5t-6 -21.5t-10 -19t-14 -20l-18 10q6 12 10.5 19.5t6.5 14.5t3 15.5t1 22.5h-15v75zM181 269h-73v-269h-63v716h63v-386h72l96 222h64l-107 -252l116 -300h-64z" />
    <glyph glyph-name="Lacute" unicode="&#x139;" horiz-adv-x="310" 
d="M102 826h66l-70 -82h-43zM47 700h67v-643h186v-57h-253v700z" />
    <glyph glyph-name="lacute" unicode="&#x13a;" horiz-adv-x="153" 
d="M101 822h66l-70 -82h-43zM45 716h63v-716h-63v716z" />
    <glyph glyph-name="uni013B" unicode="&#x13b;" horiz-adv-x="310" 
d="M149 -37h44v-68q0 -17 -2 -28.5t-6 -21.5t-10 -19t-14 -20l-18 10q6 12 10.5 19.5t6.5 14.5t3 15.5t1 22.5h-15v75zM47 700h67v-643h186v-57h-253v700z" />
    <glyph glyph-name="uni013C" unicode="&#x13c;" horiz-adv-x="153" 
d="M55 -37h44v-68q0 -17 -2 -28.5t-6 -21.5t-10 -19t-14 -20l-18 10q6 12 10.5 19.5t6.5 14.5t3 15.5t1 22.5h-15v75zM45 716h63v-716h-63v716z" />
    <glyph glyph-name="Lcaron" unicode="&#x13d;" horiz-adv-x="310" 
d="M212 701h40v-69q0 -31 -9 -46.5t-23 -32.5l-13 10q7 10 11 16.5t6 12.5t2.5 13.5t0.5 21.5h-15v74zM47 700h67v-643h186v-57h-253v700z" />
    <glyph glyph-name="lcaron" unicode="&#x13e;" horiz-adv-x="153" 
d="M157 716h40v-69q0 -31 -9 -46.5t-23 -32.5l-13 10q7 10 11 16.5t6 12.5t2.5 13.5t0.5 21.5h-15v74zM45 716h63v-716h-63v716z" />
    <glyph glyph-name="Ldot" unicode="&#x13f;" horiz-adv-x="310" 
d="M47 700h67v-643h186v-57h-253v700zM187 396h44v-65h-44v65z" />
    <glyph glyph-name="ldot" unicode="&#x140;" horiz-adv-x="193" 
d="M45 716h63v-716h-63v716zM142 395h44v-65h-44v65z" />
    <glyph glyph-name="Lslash" unicode="&#x141;" horiz-adv-x="318" 
d="M4 336l51 27v337h67v-300l78 42v-57l-78 -42v-286h186v-57h-253v306l-51 -27v57z" />
    <glyph glyph-name="lslash" unicode="&#x142;" horiz-adv-x="160" 
d="M0 345l48 30v341h63v-302l50 32v-64l-50 -29v-353h-63v316l-48 -28v57z" />
    <glyph glyph-name="Nacute" unicode="&#x143;" horiz-adv-x="423" 
d="M236 826h66l-70 -82h-43zM122 700l188 -541h1v541h65v-700h-74l-186 530h-2v-530h-67v700h75z" />
    <glyph glyph-name="nacute" unicode="&#x144;" horiz-adv-x="376" 
d="M269 448q0 23 -13 37t-35 14h-113v-499h-63v552q27 0 53 1q23 0 48.5 0.5t47.5 0.5h38q46 0 73 -22.5t27 -73.5v-458h-63v448zM196 679h66l-70 -82h-43z" />
    <glyph glyph-name="uni0145" unicode="&#x145;" horiz-adv-x="423" 
d="M183 -37h44v-68q0 -17 -2 -28.5t-6 -21.5t-10 -19t-14 -20l-18 10q6 12 10.5 19.5t6.5 14.5t3 15.5t1 22.5h-15v75zM122 700l188 -541h1v541h65v-700h-74l-186 530h-2v-530h-67v700h75z" />
    <glyph glyph-name="uni0146" unicode="&#x146;" horiz-adv-x="376" 
d="M269 448q0 23 -13 37t-35 14h-113v-499h-63v552q27 0 53 1q23 0 48.5 0.5t47.5 0.5h38q46 0 73 -22.5t27 -73.5v-458h-63v448zM168 -37h44v-68q0 -17 -2 -28.5t-6 -21.5t-10 -19t-14 -20l-18 10q6 12 10.5 19.5t6.5 14.5t3 15.5t1 22.5h-15v75z" />
    <glyph glyph-name="Ncaron" unicode="&#x147;" horiz-adv-x="423" 
d="M115 826h43l55 -55l55 55h43l-66 -82h-64zM122 700l188 -541h1v541h65v-700h-74l-186 530h-2v-530h-67v700h75z" />
    <glyph glyph-name="ncaron" unicode="&#x148;" horiz-adv-x="376" 
d="M269 448q0 23 -13 37t-35 14h-113v-499h-63v552q27 0 53 1q23 0 48.5 0.5t47.5 0.5h38q46 0 73 -22.5t27 -73.5v-458h-63v448zM91 679h43l55 -55l55 55h43l-66 -82h-64z" />
    <glyph glyph-name="Omacron" unicode="&#x14c;" horiz-adv-x="409" 
d="M113 805h186v-38h-186v38zM225 702q37 0 63.5 -5t43.5 -19.5t25.5 -40.5t8.5 -68v-438q0 -42 -8.5 -68t-25.5 -40.5t-43.5 -19.5t-63.5 -5h-41q-37 0 -63.5 5t-44 19.5t-25.5 40.5t-8 68v438q0 42 8 68t25.5 40.5t44 19.5t63.5 5h41zM224 55q16 0 30 2t24.5 9.5t16 22
t5.5 39.5v444q0 25 -5.5 39.5t-16 22t-24.5 9.5t-30 2h-38q-17 0 -30.5 -2t-24 -9.5t-16 -22t-5.5 -39.5v-444q0 -25 5.5 -39.5t16 -22t24 -9.5t30.5 -2h38z" />
    <glyph glyph-name="omacron" unicode="&#x14d;" horiz-adv-x="374" 
d="M95 658h186v-38h-186v38zM209 554q34 0 58 -5.5t38 -18.5t20.5 -35t6.5 -55v-328q0 -33 -6.5 -54.5t-20.5 -35t-38 -19t-58 -5.5h-43q-35 0 -58.5 5.5t-37.5 19t-20.5 35t-6.5 54.5v328q0 33 6.5 55t20.5 35t37.5 18.5t58.5 5.5h43zM209 51q26 0 43 11t17 51v327
q0 20 -4.5 32.5t-12 19t-18.5 8.5t-24 2h-44q-13 0 -24 -2t-18.5 -8.5t-12 -19t-4.5 -32.5l-1 -327q0 -40 17 -51t43 -11h43z" />
    <glyph glyph-name="Obreve" unicode="&#x14e;" horiz-adv-x="409" 
d="M225 702q37 0 63.5 -5t43.5 -19.5t25.5 -40.5t8.5 -68v-438q0 -42 -8.5 -68t-25.5 -40.5t-43.5 -19.5t-63.5 -5h-41q-37 0 -63.5 5t-44 19.5t-25.5 40.5t-8 68v438q0 42 8 68t25.5 40.5t44 19.5t63.5 5h41zM224 55q16 0 30 2t24.5 9.5t16 22t5.5 39.5v444q0 25 -5.5 39.5
t-16 22t-24.5 9.5t-30 2h-38q-17 0 -30.5 -2t-24 -9.5t-16 -22t-5.5 -39.5v-444q0 -25 5.5 -39.5t16 -22t24 -9.5t30.5 -2h38zM187 743q-42 0 -60 16t-18 61v10h40v-14q0 -26 12 -33t27 -7h36q15 0 27 7t12 33v14h39v-10q0 -45 -18 -61t-59 -16h-38z" />
    <glyph glyph-name="obreve" unicode="&#x14f;" horiz-adv-x="374" 
d="M209 554q34 0 58 -5.5t38 -18.5t20.5 -35t6.5 -55v-328q0 -33 -6.5 -54.5t-20.5 -35t-38 -19t-58 -5.5h-43q-35 0 -58.5 5.5t-37.5 19t-20.5 35t-6.5 54.5v328q0 33 6.5 55t20.5 35t37.5 18.5t58.5 5.5h43zM209 51q26 0 43 11t17 51v327q0 20 -4.5 32.5t-12 19t-18.5 8.5
t-24 2h-44q-13 0 -24 -2t-18.5 -8.5t-12 -19t-4.5 -32.5l-1 -327q0 -40 17 -51t43 -11h43zM170 596q-42 0 -60 16t-18 61v10h40v-14q0 -26 12 -33t27 -7h36q15 0 27 7t12 33v14h39v-10q0 -45 -18 -61t-59 -16h-38z" />
    <glyph glyph-name="Ohungarumlaut" unicode="&#x150;" horiz-adv-x="409" 
d="M198 826h57l-73 -82h-43zM287 826h67l-83 -82h-43zM225 702q37 0 63.5 -5t43.5 -19.5t25.5 -40.5t8.5 -68v-438q0 -42 -8.5 -68t-25.5 -40.5t-43.5 -19.5t-63.5 -5h-41q-37 0 -63.5 5t-44 19.5t-25.5 40.5t-8 68v438q0 42 8 68t25.5 40.5t44 19.5t63.5 5h41zM224 55
q16 0 30 2t24.5 9.5t16 22t5.5 39.5v444q0 25 -5.5 39.5t-16 22t-24.5 9.5t-30 2h-38q-17 0 -30.5 -2t-24 -9.5t-16 -22t-5.5 -39.5v-444q0 -25 5.5 -39.5t16 -22t24 -9.5t30.5 -2h38z" />
    <glyph glyph-name="ohungarumlaut" unicode="&#x151;" horiz-adv-x="374" 
d="M181 679h57l-73 -82h-43zM270 679h67l-83 -82h-43zM209 554q34 0 58 -5.5t38 -18.5t20.5 -35t6.5 -55v-328q0 -33 -6.5 -54.5t-20.5 -35t-38 -19t-58 -5.5h-43q-35 0 -58.5 5.5t-37.5 19t-20.5 35t-6.5 54.5v328q0 33 6.5 55t20.5 35t37.5 18.5t58.5 5.5h43zM209 51
q26 0 43 11t17 51v327q0 20 -4.5 32.5t-12 19t-18.5 8.5t-24 2h-44q-13 0 -24 -2t-18.5 -8.5t-12 -19t-4.5 -32.5l-1 -327q0 -40 17 -51t43 -11h43z" />
    <glyph glyph-name="OE" unicode="&#x152;" horiz-adv-x="566" 
d="M184 0q-37 0 -63.5 6t-44 22t-25.5 43t-8 69v421q0 42 8 69t25.5 42.5t44 21.5t63.5 6h361v-57h-201v-256h188v-57h-188v-273h201v-57h-361zM184 646q-16 0 -29.5 -2.5t-23 -10.5t-15 -22.5t-5.5 -39.5v-442q0 -24 5.5 -39t15 -23t23 -10.5t29.5 -2.5h94v592h-94z" />
    <glyph glyph-name="oe" unicode="&#x153;" horiz-adv-x="596" 
d="M209 554q63 0 90 -20q28 21 93 21h38q35 0 58.5 -5.5t38 -19t21 -35.5t6.5 -55v-189l-221 -2v-135q0 -40 16.5 -50.5t42.5 -10.5h42q25 0 41.5 10.5t16.5 50.5v55h63v-56q0 -65 -27.5 -90t-97.5 -25h-38q-65 0 -92 20q-29 -20 -91 -20h-43q-35 0 -58.5 5.5t-37.5 19
t-20.5 35t-6.5 54.5v328q0 33 6.5 55t20.5 35t37.5 18.5t58.5 5.5h43zM209 51q23 0 38 7.5t20 34.5v20v327v20q-4 27 -19 34.5t-38 7.5h-44q-13 0 -24 -2t-18.5 -8.5t-12 -19t-4.5 -32.5l-1 -327q0 -40 17 -51t43 -11h43zM392 500q-26 0 -42.5 -11t-16.5 -49v-135h156v135
q0 38 -16.5 49t-42.5 11h-38z" />
    <glyph glyph-name="Racute" unicode="&#x154;" horiz-adv-x="378" 
d="M204 826h66l-70 -82h-43zM46 700h178q34 0 58 -4.5t39.5 -17.5t22.5 -36.5t7 -60.5v-139q0 -29 -5 -47.5t-13.5 -29.5t-20 -16.5t-23.5 -7.5q29 -7 45.5 -30.5t16.5 -79.5v-231h-66v241q0 41 -18.5 54t-45.5 15h-108v-310h-67v700zM113 366h111q13 0 24 2t19.5 8t13 18
t4.5 32v159q0 20 -5 31.5t-13.5 17.5t-20 7.5t-24.5 1.5h-109v-277z" />
    <glyph glyph-name="racute" unicode="&#x155;" horiz-adv-x="256" 
d="M149 679h66l-70 -82h-43zM45 462q0 40 18 66t68 26h29q10 0 25.5 -0.5t31.5 -1.5q18 -1 38 -2v-46q-24 -1 -45 -2q-18 -1 -35.5 -1.5t-24.5 -0.5q-29 -2 -35 -13.5t-7 -40.5v-446h-63v462z" />
    <glyph glyph-name="uni0156" unicode="&#x156;" horiz-adv-x="378" 
d="M175 -37h44v-68q0 -17 -2 -28.5t-6 -21.5t-10 -19t-14 -20l-18 10q6 12 10.5 19.5t6.5 14.5t3 15.5t1 22.5h-15v75zM46 700h178q34 0 58 -4.5t39.5 -17.5t22.5 -36.5t7 -60.5v-139q0 -29 -5 -47.5t-13.5 -29.5t-20 -16.5t-23.5 -7.5q29 -7 45.5 -30.5t16.5 -79.5v-231
h-66v241q0 41 -18.5 54t-45.5 15h-108v-310h-67v700zM113 366h111q13 0 24 2t19.5 8t13 18t4.5 32v159q0 20 -5 31.5t-13.5 17.5t-20 7.5t-24.5 1.5h-109v-277z" />
    <glyph glyph-name="uni0157" unicode="&#x157;" horiz-adv-x="256" 
d="M56 -37h44v-68q0 -17 -2 -28.5t-6 -21.5t-10 -19t-14 -20l-18 10q6 12 10.5 19.5t6.5 14.5t3 15.5t1 22.5h-15v75zM45 462q0 40 18 66t68 26h29q10 0 25.5 -0.5t31.5 -1.5q18 -1 38 -2v-46q-24 -1 -45 -2q-18 -1 -35.5 -1.5t-24.5 -0.5q-29 -2 -35 -13.5t-7 -40.5v-446
h-63v462z" />
    <glyph glyph-name="Rcaron" unicode="&#x158;" horiz-adv-x="378" 
d="M92 826h43l55 -55l55 55h43l-66 -82h-64zM46 700h178q34 0 58 -4.5t39.5 -17.5t22.5 -36.5t7 -60.5v-139q0 -29 -5 -47.5t-13.5 -29.5t-20 -16.5t-23.5 -7.5q29 -7 45.5 -30.5t16.5 -79.5v-231h-66v241q0 41 -18.5 54t-45.5 15h-108v-310h-67v700zM113 366h111q13 0 24 2
t19.5 8t13 18t4.5 32v159q0 20 -5 31.5t-13.5 17.5t-20 7.5t-24.5 1.5h-109v-277z" />
    <glyph glyph-name="rcaron" unicode="&#x159;" horiz-adv-x="256" 
d="M38 679h43l55 -55l55 55h43l-66 -82h-64zM45 462q0 40 18 66t68 26h29q10 0 25.5 -0.5t31.5 -1.5q18 -1 38 -2v-46q-24 -1 -45 -2q-18 -1 -35.5 -1.5t-24.5 -0.5q-29 -2 -35 -13.5t-7 -40.5v-446h-63v462z" />
    <glyph glyph-name="Sacute" unicode="&#x15a;" horiz-adv-x="386" 
d="M211 826h66l-70 -82h-43zM206 702q37 0 64 -5t44.5 -19.5t25.5 -41t8 -68.5v-102h-69v107q0 24 -5.5 38t-15 21t-23 9t-29.5 2h-28q-16 0 -29.5 -2t-23 -9t-15 -21t-5.5 -38v-79q0 -22 5 -35.5t15 -22t24.5 -14.5t33.5 -13l72 -25l37.5 -15t31 -19.5t21 -32t7.5 -52.5
v-133q0 -42 -8.5 -68t-25.5 -41t-44 -20t-64 -5h-32q-38 0 -64.5 5t-44 20t-25.5 41t-8 68v102h69v-106q0 -24 5 -38.5t15 -21.5t23 -9t30 -2h32q16 0 29.5 2t23 9t15 21.5t5.5 38.5v121q0 21 -5.5 33.5t-15 20.5t-22.5 13t-29 12l-76 25q-20 8 -38 15.5t-31.5 20.5
t-21.5 33t-8 52v94q0 42 8.5 68.5t25.5 41t44 19.5t64 5h28z" />
    <glyph glyph-name="sacute" unicode="&#x15b;" horiz-adv-x="332" 
d="M178 679h66l-70 -82h-43zM175 555q35 0 58 -5.5t37 -19t20 -35.5t6 -55v-47h-63v51q0 38 -16 47t-42 9h-22q-13 0 -24 -1.5t-18.5 -7.5t-12 -17t-4.5 -30v-53q0 -26 16 -35.5t43 -21.5l69 -26q16 -6 31 -13.5t26.5 -18.5t18 -27t6.5 -40v-93q0 -33 -6.5 -55t-21 -36
t-38 -20t-58.5 -6h-27q-35 0 -59 5.5t-38.5 19t-20.5 35.5t-6 55v52h65v-55q0 -20 4.5 -31t12 -17t18.5 -7.5t24 -1.5h27q26 0 42 10.5t16 49.5v84q0 16 -5 26t-13.5 16.5t-19 10.5t-21.5 9l-68 27q-15 6 -30 12.5t-26.5 17t-18.5 26.5t-7 42v55q0 33 6 55t20.5 35.5
t38.5 19t59 5.5h22z" />
    <glyph glyph-name="Scedilla" unicode="&#x15e;" horiz-adv-x="386" 
d="M206 702q37 0 64 -5t44.5 -19.5t25.5 -41t8 -68.5v-102h-69v107q0 24 -5.5 38t-15 21t-23 9t-29.5 2h-28q-16 0 -29.5 -2t-23 -9t-15 -21t-5.5 -38v-79q0 -22 5 -35.5t15 -22t24.5 -14.5t33.5 -13l72 -25l37.5 -15t31 -19.5t21 -32t7.5 -52.5v-133q0 -42 -8.5 -68
t-25.5 -41t-44 -20t-64 -5h-5l-24 -112h-50l38 112q-35 1 -60.5 6.5t-41.5 20.5t-23.5 40.5t-7.5 66.5v102h69v-106q0 -24 5 -38.5t15 -21.5t23 -9t30 -2h32q16 0 29.5 2t23 9t15 21.5t5.5 38.5v121q0 21 -5.5 33.5t-15 20.5t-22.5 13t-29 12l-76 25q-20 8 -38 15.5
t-31.5 20.5t-21.5 33t-8 52v94q0 42 8.5 68.5t25.5 41t44 19.5t64 5h28z" />
    <glyph glyph-name="scedilla" unicode="&#x15f;" horiz-adv-x="332" 
d="M175 555q35 0 58 -5.5t37 -19t20 -35.5t6 -55v-47h-63v51q0 38 -16 47t-42 9h-22q-13 0 -24 -1.5t-18.5 -7.5t-12 -17t-4.5 -30v-53q0 -26 16 -35.5t43 -21.5l69 -26q16 -6 31 -13.5t26.5 -18.5t18 -27t6.5 -40v-93q0 -64 -26 -90t-91 -27l-25 -113h-50l38 113
q-35 0 -58 6t-37 19.5t-20 35t-6 54.5v52h65v-55q0 -20 4.5 -31t12 -17t18.5 -7.5t24 -1.5h27q26 0 42 10.5t16 49.5v84q0 16 -5 26t-13.5 16.5t-19 10.5t-21.5 9l-68 27q-15 6 -30 12.5t-26.5 17t-18.5 26.5t-7 42v55q0 33 6 55t20.5 35.5t38.5 19t59 5.5h22z" />
    <glyph glyph-name="Scaron" unicode="&#x160;" horiz-adv-x="386" 
d="M96 826h43l55 -55l55 55h43l-66 -82h-64zM206 702q37 0 64 -5t44.5 -19.5t25.5 -41t8 -68.5v-102h-69v107q0 24 -5.5 38t-15 21t-23 9t-29.5 2h-28q-16 0 -29.5 -2t-23 -9t-15 -21t-5.5 -38v-79q0 -22 5 -35.5t15 -22t24.5 -14.5t33.5 -13l72 -25l37.5 -15t31 -19.5
t21 -32t7.5 -52.5v-133q0 -42 -8.5 -68t-25.5 -41t-44 -20t-64 -5h-32q-38 0 -64.5 5t-44 20t-25.5 41t-8 68v102h69v-106q0 -24 5 -38.5t15 -21.5t23 -9t30 -2h32q16 0 29.5 2t23 9t15 21.5t5.5 38.5v121q0 21 -5.5 33.5t-15 20.5t-22.5 13t-29 12l-76 25q-20 8 -38 15.5
t-31.5 20.5t-21.5 33t-8 52v94q0 42 8.5 68.5t25.5 41t44 19.5t64 5h28z" />
    <glyph glyph-name="scaron" unicode="&#x161;" horiz-adv-x="332" 
d="M72 679h43l55 -55l55 55h43l-66 -82h-64zM175 555q35 0 58 -5.5t37 -19t20 -35.5t6 -55v-47h-63v51q0 38 -16 47t-42 9h-22q-13 0 -24 -1.5t-18.5 -7.5t-12 -17t-4.5 -30v-53q0 -26 16 -35.5t43 -21.5l69 -26q16 -6 31 -13.5t26.5 -18.5t18 -27t6.5 -40v-93
q0 -33 -6.5 -55t-21 -36t-38 -20t-58.5 -6h-27q-35 0 -59 5.5t-38.5 19t-20.5 35.5t-6 55v52h65v-55q0 -20 4.5 -31t12 -17t18.5 -7.5t24 -1.5h27q26 0 42 10.5t16 49.5v84q0 16 -5 26t-13.5 16.5t-19 10.5t-21.5 9l-68 27q-15 6 -30 12.5t-26.5 17t-18.5 26.5t-7 42v55
q0 33 6 55t20.5 35.5t38.5 19t59 5.5h22z" />
    <glyph glyph-name="uni0162" unicode="&#x162;" horiz-adv-x="361" 
d="M158 -37h44v-68q0 -17 -2 -28.5t-6 -21.5t-10 -19t-14 -20l-18 10q6 12 10.5 19.5t6.5 14.5t3 15.5t1 22.5h-15v75zM214 0h-67v643h-140v57h346v-57h-139v-643z" />
    <glyph glyph-name="uni0163" unicode="&#x163;" horiz-adv-x="212" 
d="M105 -37h44v-68q0 -17 -2 -28.5t-6 -21.5t-10 -19t-14 -20l-18 10q6 12 10.5 19.5t6.5 14.5t3 15.5t1 22.5h-15v75zM201 499h-83v-405q0 -18 6.5 -29t26.5 -11h57v-54l-57 -2q-28 -1 -46.5 3.5t-29.5 15t-15.5 28.5t-4.5 45v409h-42v53h42v124h63v-124h83v-53z" />
    <glyph glyph-name="Tcaron" unicode="&#x164;" horiz-adv-x="361" 
d="M83 826h43l55 -55l55 55h43l-66 -82h-64zM214 0h-67v643h-140v57h346v-57h-139v-643z" />
    <glyph glyph-name="tcaron" unicode="&#x165;" horiz-adv-x="215" 
d="M158 741h40v-69q0 -31 -9 -46.5t-23 -32.5l-13 10q7 10 11 16.5t6 12.5t2.5 13.5t0.5 21.5h-15v74zM201 499h-83v-405q0 -18 6.5 -29t26.5 -11h57v-54l-57 -2q-28 -1 -46.5 3.5t-29.5 15t-15.5 28.5t-4.5 45v409h-42v53h42v124h63v-124h83v-53z" />
    <glyph glyph-name="Umacron" unicode="&#x16a;" horiz-adv-x="409" 
d="M110 700v-571q0 -24 4.5 -39t13 -22.5t21 -10t29.5 -2.5h54q16 0 28.5 2.5t21.5 10t13.5 22.5t4.5 39v571h66v-569q0 -42 -8.5 -68t-25.5 -40.5t-43.5 -19.5t-63.5 -5h-41q-37 0 -63.5 5t-44 19.5t-25.5 40.5t-8 68v569h67zM113 805h186v-38h-186v38z" />
    <glyph glyph-name="umacron" unicode="&#x16b;" horiz-adv-x="374" 
d="M105 105q0 -23 13 -37t35 -14h113v498h63v-552q-35 -1 -65 -1q-26 -1 -50.5 -1h-32.5h-39q-45 0 -72.5 23t-27.5 74v457h63v-447zM95 658h186v-38h-186v38z" />
    <glyph glyph-name="Ubreve" unicode="&#x16c;" horiz-adv-x="409" 
d="M110 700v-571q0 -24 4.5 -39t13 -22.5t21 -10t29.5 -2.5h54q16 0 28.5 2.5t21.5 10t13.5 22.5t4.5 39v571h66v-569q0 -42 -8.5 -68t-25.5 -40.5t-43.5 -19.5t-63.5 -5h-41q-37 0 -63.5 5t-44 19.5t-25.5 40.5t-8 68v569h67zM187 743q-42 0 -60 16t-18 61v10h40v-14
q0 -26 12 -33t27 -7h36q15 0 27 7t12 33v14h39v-10q0 -45 -18 -61t-59 -16h-38z" />
    <glyph glyph-name="ubreve" unicode="&#x16d;" horiz-adv-x="374" 
d="M105 105q0 -23 13 -37t35 -14h113v498h63v-552q-35 -1 -65 -1q-26 -1 -50.5 -1h-32.5h-39q-45 0 -72.5 23t-27.5 74v457h63v-447zM169 596q-42 0 -60 16t-18 61v10h40v-14q0 -26 12 -33t27 -7h36q15 0 27 7t12 33v14h39v-10q0 -45 -18 -61t-59 -16h-38z" />
    <glyph glyph-name="Uring" unicode="&#x16e;" horiz-adv-x="409" 
d="M213 857q34 0 45.5 -12.5t11.5 -41.5v-13q0 -29 -11.5 -41.5t-45.5 -12.5h-15q-33 0 -45 12.5t-12 41.5v13q0 29 12 41.5t45 12.5h15zM199 835q-21 0 -27 -6t-6 -24v-16q0 -20 6.5 -25.5t26.5 -5.5h13q20 0 27 5.5t7 25.5v16q0 18 -6 24t-28 6h-13zM110 700v-571
q0 -24 4.5 -39t13 -22.5t21 -10t29.5 -2.5h54q16 0 28.5 2.5t21.5 10t13.5 22.5t4.5 39v571h66v-569q0 -42 -8.5 -68t-25.5 -40.5t-43.5 -19.5t-63.5 -5h-41q-37 0 -63.5 5t-44 19.5t-25.5 40.5t-8 68v569h67z" />
    <glyph glyph-name="uring" unicode="&#x16f;" horiz-adv-x="374" 
d="M105 105q0 -23 13 -37t35 -14h113v498h63v-552q-35 -1 -65 -1q-26 -1 -50.5 -1h-32.5h-39q-45 0 -72.5 23t-27.5 74v457h63v-447zM195 710q34 0 45.5 -12.5t11.5 -41.5v-13q0 -29 -11.5 -41.5t-45.5 -12.5h-15q-33 0 -45 12.5t-12 41.5v13q0 29 12 41.5t45 12.5h15z
M181 688q-21 0 -27 -6t-6 -24v-16q0 -20 6.5 -25.5t26.5 -5.5h13q20 0 27 5.5t7 25.5v16q0 18 -6 24t-28 6h-13z" />
    <glyph glyph-name="Uhungarumlaut" unicode="&#x170;" horiz-adv-x="409" 
d="M110 700v-571q0 -24 4.5 -39t13 -22.5t21 -10t29.5 -2.5h54q16 0 28.5 2.5t21.5 10t13.5 22.5t4.5 39v571h66v-569q0 -42 -8.5 -68t-25.5 -40.5t-43.5 -19.5t-63.5 -5h-41q-37 0 -63.5 5t-44 19.5t-25.5 40.5t-8 68v569h67zM193 826h57l-73 -82h-43zM282 826h67l-83 -82
h-43z" />
    <glyph glyph-name="uhungarumlaut" unicode="&#x171;" horiz-adv-x="374" 
d="M105 105q0 -23 13 -37t35 -14h113v498h63v-552q-35 -1 -65 -1q-26 -1 -50.5 -1h-32.5h-39q-45 0 -72.5 23t-27.5 74v457h63v-447zM267 679h67l-83 -82h-43zM178 679h57l-73 -82h-43z" />
    <glyph glyph-name="Uogonek" unicode="&#x172;" horiz-adv-x="409" 
d="M110 700v-571q0 -24 4.5 -39t13 -22.5t21 -10t29.5 -2.5h54q16 0 28.5 2.5t21.5 10t13.5 22.5t4.5 39v571h66v-569q0 -39 -7 -64t-21 -39.5t-36.5 -21t-52.5 -7.5v-2l-49 -30q-18 -13 -25 -17.5t-7 -18.5v-9q0 -14 4.5 -20t18.5 -6h26q14 0 18 5t4 19v15h34v-14
q0 -26 -9 -40.5t-40 -14.5h-38q-31 0 -42 11.5t-11 37.5v12q0 11 2.5 18.5t7 12.5t12 10t18.5 11q4 2 14.5 8t18.5 11h-22q-37 0 -63.5 5t-44 19.5t-25.5 40.5t-8 68v569h67z" />
    <glyph glyph-name="uogonek" unicode="&#x173;" horiz-adv-x="374" 
d="M105 105q0 -23 13 -37t35 -14h113v498h63v-553l-49 -30q-18 -13 -25 -17.5t-7 -18.5v-9q0 -14 4.5 -20t18.5 -6h26q14 0 18 5t4 19v15h34v-14q0 -26 -9 -40.5t-40 -14.5h-38q-31 0 -42 11.5t-11 37.5v12q0 11 2.5 18.5t7 12.5t12 10t18.5 11q4 2 14 7.5t18 10.5h-31
t-30.5 -0.5t-26 -0.5h-16.5h-39q-45 0 -72.5 23t-27.5 74v457h63v-447z" />
    <glyph glyph-name="Wcircumflex" unicode="&#x174;" horiz-adv-x="580" 
d="M257 826h64l66 -82h-43l-55 55l-55 -55h-43zM80 700l79 -637h8l78 637h91l76 -637h9l80 637h68l-87 -700h-133l-58 574h-2l-58 -574h-133l-87 700h69z" />
    <glyph glyph-name="wcircumflex" unicode="&#x175;" horiz-adv-x="522" 
d="M229 679h64l66 -82h-43l-55 55l-55 -55h-43zM261 410h-1l-58 -410h-114l-80 552h67l67 -492h9l72 492h76l73 -492h8l67 492h67l-80 -552h-113z" />
    <glyph glyph-name="Ycircumflex" unicode="&#x176;" horiz-adv-x="390" 
d="M162 283l-153 417h67l118 -339l120 339h67l-153 -417v-283h-66v283zM164 826h64l66 -82h-43l-55 55l-55 -55h-43z" />
    <glyph glyph-name="ycircumflex" unicode="&#x177;" horiz-adv-x="339" 
d="M-4 552h68l91 -486h22l85 486h67l-120 -677h-60l22 128h-68zM139 679h64l66 -82h-43l-55 55l-55 -55h-43z" />
    <glyph glyph-name="Ydieresis" unicode="&#x178;" horiz-adv-x="390" 
d="M162 283l-153 417h67l118 -339l120 339h67l-153 -417v-283h-66v283zM110 826h44v-71h-44v71zM238 826h44v-71h-44v71z" />
    <glyph glyph-name="Zacute" unicode="&#x179;" horiz-adv-x="335" 
d="M177 826h66l-70 -82h-43zM26 700h287v-57l-222 -586h222v-57h-291v57l228 586h-224v57z" />
    <glyph glyph-name="zacute" unicode="&#x17a;" horiz-adv-x="315" 
d="M166 679h66l-70 -82h-43zM297 0h-279v54l207 442h-204v56h275v-56l-206 -440h207v-56z" />
    <glyph glyph-name="Zdotaccent" unicode="&#x17b;" horiz-adv-x="335" 
d="M26 700h287v-57l-222 -586h222v-57h-291v57l228 586h-224v57zM153 828h44v-65h-44v65z" />
    <glyph glyph-name="zdotaccent" unicode="&#x17c;" horiz-adv-x="315" 
d="M297 0h-279v54l207 442h-204v56h275v-56l-206 -440h207v-56zM143 681h44v-65h-44v65z" />
    <glyph glyph-name="Zcaron" unicode="&#x17d;" horiz-adv-x="335" 
d="M70 826h43l55 -55l55 55h43l-66 -82h-64zM26 700h287v-57l-222 -586h222v-57h-291v57l228 586h-224v57z" />
    <glyph glyph-name="zcaron" unicode="&#x17e;" horiz-adv-x="315" 
d="M61 679h43l55 -55l55 55h43l-66 -82h-64zM297 0h-279v54l207 442h-204v56h275v-56l-206 -440h207v-56z" />
    <glyph glyph-name="Aringacute" unicode="&#x1fa;" horiz-adv-x="385" 
d="M201 802q34 0 45.5 -12.5t11.5 -41.5v-13q0 -24 -7 -35h3l138 -700h-67l-33 161h-198l-32 -161h-67l139 700h2q-7 11 -7 35v13q0 29 12 41.5t45 12.5h15zM109 224h167l-78 423h-10zM187 780q-21 0 -27 -6t-6 -24v-16q0 -20 6.5 -25.5t26.5 -5.5h13q20 0 27 5.5t7 25.5v16
q0 18 -6 24t-28 6h-13zM214 906h66l-70 -82h-43z" />
    <glyph glyph-name="aringacute" unicode="&#x1fb;" horiz-adv-x="363" 
d="M179 501q-12 0 -23 -1.5t-19.5 -7.5t-13 -17.5t-4.5 -31.5v-45h-61v42q0 33 5.5 54.5t19 34.5t36.5 19t57 6h22q34 0 57 -5.5t37.5 -18.5t20.5 -35t6 -55v-440q-32 -1 -60 -1q-24 -1 -48 -1h-38h-37q-45 0 -72.5 23t-27.5 74v163q0 51 27.5 73.5t72.5 22.5h119v87
q0 21 -4.5 33t-12.5 18t-18.5 7.5t-23.5 1.5h-17zM99 105q0 -23 12 -37t34 -14h110v245h-110q-21 0 -33.5 -13t-12.5 -36v-145zM210 820h66l-70 -82h-43zM194 709q34 0 45.5 -12.5t11.5 -41.5v-13q0 -29 -11.5 -41.5t-45.5 -12.5h-15q-33 0 -45 12.5t-12 41.5v13
q0 29 12 41.5t45 12.5h15zM180 687q-21 0 -27 -6t-6 -24v-16q0 -20 6.5 -25.5t26.5 -5.5h13q20 0 27 5.5t7 25.5v16q0 18 -6 24t-28 6h-13z" />
    <glyph glyph-name="AEacute" unicode="&#x1fc;" horiz-adv-x="608" 
d="M394 826h66l-70 -82h-43zM313 167h-176l-57 -167h-66l240 700h327v-57h-201v-256h188v-58h-188v-272h201v-57h-268v167zM157 224h156v419h-19z" />
    <glyph glyph-name="aeacute" unicode="&#x1fd;" horiz-adv-x="586" 
d="M319 679h66l-70 -82h-43zM420 554q34 0 58 -5.5t38 -18.5t20.5 -35t6.5 -55v-199l-221 -1v-129q0 -40 16.5 -50.5t42.5 -10.5h47q26 0 42 11t16 51v57h59v-56q0 -32 -6 -54t-20.5 -35.5t-37.5 -19.5t-57 -6h-43q-44 0 -72.5 8t-39.5 40q-8 -6 -17.5 -14.5t-21.5 -16
t-26.5 -12.5t-30.5 -5h-37q-45 0 -72.5 23t-27.5 74v150q0 51 27.5 74t72.5 23h122v102q0 37 -16.5 47.5t-40.5 10.5h-29q-15 0 -26.5 -2t-19.5 -8.5t-12.5 -18.5t-4.5 -33v-42h-57v42q0 33 6 54.5t19.5 35t36.5 19t58 5.5h29q32 0 55 -7.5t34 -33.5q12 26 35.5 33.5
t55.5 7.5h39zM259 95q-1 4 -1 8v9v179h-111q-22 0 -35 -16t-13 -38v-132q0 -23 13 -37t35 -14h33q11 0 22.5 4.5t22 11t19.5 13.5t15 12zM381 504q-25 0 -42 -10.5t-17 -46.5v-156h158v151q0 40 -16.5 51t-43.5 11h-39z" />
    <glyph glyph-name="Oslashacute" unicode="&#x1fe;" horiz-adv-x="409" 
d="M225 702q26 0 46 -2.5t37 -8.5l17 48h37l-24 -67q28 -29 28 -103v-438q0 -42 -8.5 -68t-25.5 -40.5t-43.5 -19.5t-63.5 -5h-41q-55 0 -84 11l-17 -47h-37l24 67q-27 28 -27 102v438q0 42 8 68t25.5 40.5t44 19.5t63.5 5h41zM224 55q16 0 30 2t24.5 9.5t16 22t5.5 39.5
v438l-177 -491q11 -13 27 -16.5t36 -3.5h38zM110 140l175 487q-11 11 -26.5 14.5t-34.5 3.5h-38q-17 0 -30.5 -2t-24 -9.5t-16 -22t-5.5 -39.5v-432zM221 826h66l-70 -82h-43z" />
    <glyph glyph-name="oslashacute" unicode="&#x1ff;" horiz-adv-x="374" 
d="M209 554q29 0 54 -5l19 50h35l-23 -61q38 -23 38 -98v-328q0 -33 -6.5 -54.5t-20.5 -35t-38 -19t-58 -5.5h-43q-22 0 -39 2t-31 7l-16 -43h-35l22 60q-24 25 -24 88v328q0 33 6.5 55t20.5 35t37.5 18.5t58.5 5.5h43zM209 51q26 0 43 11t17 51v327q0 7 -0.5 13.5
t-1.5 11.5l-149 -398v-1q8 -9 20.5 -12t27.5 -3h43zM106 127l138 369q-8 4 -16 5t-18 1h-44q-13 0 -24 -2t-18.5 -8.5t-12 -19t-4.5 -32.5zM208 679h66l-70 -82h-43z" />
    <glyph glyph-name="uni0218" unicode="&#x218;" horiz-adv-x="386" 
d="M169 -37h44v-68q0 -17 -2 -28.5t-6 -21.5t-10 -19t-14 -20l-18 10q6 12 10.5 19.5t6.5 14.5t3 15.5t1 22.5h-15v75zM206 702q37 0 64 -5t44.5 -19.5t25.5 -41t8 -68.5v-102h-69v107q0 24 -5.5 38t-15 21t-23 9t-29.5 2h-28q-16 0 -29.5 -2t-23 -9t-15 -21t-5.5 -38v-79
q0 -22 5 -35.5t15 -22t24.5 -14.5t33.5 -13l72 -25l37.5 -15t31 -19.5t21 -32t7.5 -52.5v-133q0 -42 -8.5 -68t-25.5 -41t-44 -20t-64 -5h-32q-38 0 -64.5 5t-44 20t-25.5 41t-8 68v102h69v-106q0 -24 5 -38.5t15 -21.5t23 -9t30 -2h32q16 0 29.5 2t23 9t15 21.5t5.5 38.5
v121q0 21 -5.5 33.5t-15 20.5t-22.5 13t-29 12l-76 25q-20 8 -38 15.5t-31.5 20.5t-21.5 33t-8 52v94q0 42 8.5 68.5t25.5 41t44 19.5t64 5h28z" />
    <glyph glyph-name="uni0219" unicode="&#x219;" horiz-adv-x="332" 
d="M143 -37h44v-68q0 -17 -2 -28.5t-6 -21.5t-10 -19t-14 -20l-18 10q6 12 10.5 19.5t6.5 14.5t3 15.5t1 22.5h-15v75zM175 555q35 0 58 -5.5t37 -19t20 -35.5t6 -55v-47h-63v51q0 38 -16 47t-42 9h-22q-13 0 -24 -1.5t-18.5 -7.5t-12 -17t-4.5 -30v-53q0 -26 16 -35.5
t43 -21.5l69 -26q16 -6 31 -13.5t26.5 -18.5t18 -27t6.5 -40v-93q0 -33 -6.5 -55t-21 -36t-38 -20t-58.5 -6h-27q-35 0 -59 5.5t-38.5 19t-20.5 35.5t-6 55v52h65v-55q0 -20 4.5 -31t12 -17t18.5 -7.5t24 -1.5h27q26 0 42 10.5t16 49.5v84q0 16 -5 26t-13.5 16.5t-19 10.5
t-21.5 9l-68 27q-15 6 -30 12.5t-26.5 17t-18.5 26.5t-7 42v55q0 33 6 55t20.5 35.5t38.5 19t59 5.5h22z" />
    <glyph glyph-name="circumflex" unicode="&#x2c6;" horiz-adv-x="500" 
d="M218 679h64l66 -82h-43l-55 55l-55 -55h-43z" />
    <glyph glyph-name="caron" unicode="&#x2c7;" horiz-adv-x="500" 
d="M152 679h43l55 -55l55 55h43l-66 -82h-64z" />
    <glyph glyph-name="breve" unicode="&#x2d8;" horiz-adv-x="500" 
d="M231 596q-42 0 -60 16t-18 61v10h40v-14q0 -26 12 -33t27 -7h36q15 0 27 7t12 33v14h39v-10q0 -45 -18 -61t-59 -16h-38z" />
    <glyph glyph-name="dotaccent" unicode="&#x2d9;" horiz-adv-x="500" 
d="M228 681h44v-65h-44v65z" />
    <glyph glyph-name="ring" unicode="&#x2da;" horiz-adv-x="500" 
d="M257 710q34 0 45.5 -12.5t11.5 -41.5v-13q0 -29 -11.5 -41.5t-45.5 -12.5h-15q-33 0 -45 12.5t-12 41.5v13q0 29 12 41.5t45 12.5h15zM243 688q-21 0 -27 -6t-6 -24v-16q0 -20 6.5 -25.5t26.5 -5.5h13q20 0 27 5.5t7 25.5v16q0 18 -6 24t-28 6h-13z" />
    <glyph glyph-name="ogonek" unicode="&#x2db;" horiz-adv-x="500" 
d="M321 -81q0 -26 -9 -40.5t-40 -14.5h-38q-31 0 -42 11.5t-11 37.5v12q0 11 2.5 18.5t7 12.5t12 10t18.5 11q2 1 9 5l14 8q8 4 17 10h36v-5l-49 -30q-18 -13 -25 -17.5t-7 -18.5v-9q0 -14 4.5 -20t18.5 -6h26q14 0 18 5t4 19v15h34v-14z" />
    <glyph glyph-name="tilde" unicode="&#x2dc;" horiz-adv-x="500" 
d="M191 653l-2 -47h-30l2 72h31l107 -40l3 39h29l-2 -73h-30z" />
    <glyph glyph-name="hungarumlaut" unicode="&#x2dd;" horiz-adv-x="500" 
d="M225 679h57l-73 -82h-43zM314 679h67l-83 -82h-43z" />
    <glyph glyph-name="Wgrave" unicode="&#x1e80;" horiz-adv-x="580" 
d="M80 700l79 -637h8l78 637h91l76 -637h9l80 637h68l-87 -700h-133l-58 574h-2l-58 -574h-133l-87 700h69zM319 744h-43l-69 82h66z" />
    <glyph glyph-name="wgrave" unicode="&#x1e81;" horiz-adv-x="522" 
d="M261 410h-1l-58 -410h-114l-80 552h67l67 -492h9l72 492h76l73 -492h8l67 492h67l-80 -552h-113zM292 597h-43l-69 82h66z" />
    <glyph glyph-name="Wacute" unicode="&#x1e82;" horiz-adv-x="580" 
d="M306 826h66l-70 -82h-43zM80 700l79 -637h8l78 637h91l76 -637h9l80 637h68l-87 -700h-133l-58 574h-2l-58 -574h-133l-87 700h69z" />
    <glyph glyph-name="wacute" unicode="&#x1e83;" horiz-adv-x="522" 
d="M281 679h66l-70 -82h-43zM261 410h-1l-58 -410h-114l-80 552h67l67 -492h9l72 492h76l73 -492h8l67 492h67l-80 -552h-113z" />
    <glyph glyph-name="Wdieresis" unicode="&#x1e84;" horiz-adv-x="580" 
d="M204 826h44v-71h-44v71zM332 826h44v-71h-44v71zM80 700l79 -637h8l78 637h91l76 -637h9l80 637h68l-87 -700h-133l-58 574h-2l-58 -574h-133l-87 700h69z" />
    <glyph glyph-name="wdieresis" unicode="&#x1e85;" horiz-adv-x="522" 
d="M176 679h44v-71h-44v71zM304 679h44v-71h-44v71zM261 410h-1l-58 -410h-114l-80 552h67l67 -492h9l72 492h76l73 -492h8l67 492h67l-80 -552h-113z" />
    <glyph glyph-name="Ygrave" unicode="&#x1ef2;" horiz-adv-x="390" 
d="M162 283l-153 417h67l118 -339l120 339h67l-153 -417v-283h-66v283zM229 744h-43l-69 82h66z" />
    <glyph glyph-name="ygrave" unicode="&#x1ef3;" horiz-adv-x="339" 
d="M-4 552h68l91 -486h22l85 486h67l-120 -677h-60l22 128h-68zM200 597h-43l-69 82h66z" />
    <glyph glyph-name="endash" unicode="&#x2013;" horiz-adv-x="388" 
d="M17 322h354v-46h-354v46z" />
    <glyph glyph-name="emdash" unicode="&#x2014;" horiz-adv-x="551" 
d="M17 322h517v-46h-517v46z" />
    <glyph glyph-name="quoteleft" unicode="&#x2018;" horiz-adv-x="152" 
d="M104 507h-60v77q0 24 3 40.5t9 29.5t14.5 23.5t19.5 22.5l20 -14q-8 -13 -13.5 -22t-9 -16.5t-5 -16t-1.5 -21.5h23v-103z" />
    <glyph glyph-name="quoteright" unicode="&#x2019;" horiz-adv-x="152" 
d="M47 701h60v-77q0 -24 -3.5 -40.5t-9.5 -29.5t-14.5 -23.5t-18.5 -22.5l-20 14q8 13 13.5 22t9 16.5t5 16t1.5 21.5h-23v103z" />
    <glyph glyph-name="quotesinglbase" unicode="&#x201a;" horiz-adv-x="152" 
d="M47 103h60v-77q0 -24 -3.5 -40.5t-9.5 -29.5t-14.5 -23.5t-18.5 -22.5l-20 14q8 13 13.5 22t9 16.5t5 16t1.5 21.5h-23v103z" />
    <glyph glyph-name="quotedblleft" unicode="&#x201c;" horiz-adv-x="263" 
d="M104 507h-60v77q0 24 3 40.5t9 29.5t14.5 23.5t19.5 22.5l20 -14q-8 -13 -13.5 -22t-9 -16.5t-5 -16t-1.5 -21.5h23v-103zM214 507h-60v77q0 24 3 40.5t9 29.5t14.5 23.5t19.5 22.5l20 -14q-8 -13 -13.5 -22t-9 -16.5t-5 -16t-1.5 -21.5h23v-103z" />
    <glyph glyph-name="quotedblright" unicode="&#x201d;" horiz-adv-x="263" 
d="M47 701h60v-77q0 -24 -3.5 -40.5t-9.5 -29.5t-14.5 -23.5t-18.5 -22.5l-20 14q8 13 13.5 22t9 16.5t5 16t1.5 21.5h-23v103zM157 701h60v-77q0 -24 -3.5 -40.5t-9.5 -29.5t-14.5 -23.5t-18.5 -22.5l-20 14q8 13 13.5 22t9 16.5t5 16t1.5 21.5h-23v103z" />
    <glyph glyph-name="quotedblbase" unicode="&#x201e;" horiz-adv-x="263" 
d="M47 103h60v-77q0 -24 -3.5 -40.5t-9.5 -29.5t-14.5 -23.5t-18.5 -22.5l-20 14q8 13 13.5 22t9 16.5t5 16t1.5 21.5h-23v103zM157 103h60v-77q0 -24 -3.5 -40.5t-9.5 -29.5t-14.5 -23.5t-18.5 -22.5l-20 14q8 13 13.5 22t9 16.5t5 16t1.5 21.5h-23v103z" />
    <glyph glyph-name="dagger" unicode="&#x2020;" horiz-adv-x="319" 
d="M142 647v53h35v-53l-11 -75h-13zM306 572v-36h-54l-75 11v14l75 11h54zM67 536h-54v36h54l74 -11v-14zM142 425l11 111h13l11 -111l-11 -134h-13z" />
    <glyph glyph-name="daggerdbl" unicode="&#x2021;" horiz-adv-x="319" 
d="M142 437l11 99h13l11 -98l-11 -98h-13zM141 561v-14l-74 -11h-54v36h54zM142 228l11 75h13l11 -75v-53h-35v53zM252 536l-75 11v14l75 11h54v-36h-54zM141 328v-13l-74 -11h-54v35h54zM142 647v53h35v-53l-11 -75h-13zM252 339h54v-35h-54l-75 11v13z" />
    <glyph glyph-name="bullet" unicode="&#x2022;" horiz-adv-x="246" 
d="M134 450q21 0 32.5 -3.5t17.5 -11t7.5 -19.5t1.5 -30v-63q0 -18 -1.5 -29.5t-7.5 -19t-17.5 -10.5t-32.5 -3h-20q-21 0 -33.5 3t-18.5 10.5t-7.5 19t-1.5 29.5v63q0 18 1.5 30t7.5 19.5t18.5 11t33.5 3.5h20z" />
    <glyph glyph-name="ellipsis" unicode="&#x2026;" horiz-adv-x="455" 
d="M46 103h60v-103h-60v103zM198 103h59v-103h-59v103zM349 103h60v-103h-60v103z" />
    <glyph glyph-name="perthousand" unicode="&#x2030;" horiz-adv-x="858" 
d="M172 701q45 0 64.5 -18t19.5 -65v-207q0 -48 -19.5 -66t-64.5 -18h-42q-45 0 -64.5 18t-19.5 66v207q0 47 19.5 65t64.5 18h42zM482 373q45 0 64.5 -18t19.5 -66v-206q0 -48 -19.5 -66.5t-64.5 -18.5h-42q-45 0 -64.5 18.5t-19.5 66.5v206q0 48 19.5 66t64.5 18h42z
M728 373q45 0 64.5 -18t19.5 -66v-206q0 -48 -19.5 -66.5t-64.5 -18.5h-42q-45 0 -64.5 18.5t-19.5 66.5v206q0 48 19.5 66t64.5 18h42zM442 340q-20 0 -32.5 -8.5t-12.5 -37.5v-215q0 -29 12.5 -38t32.5 -9h38q20 0 32.5 9t12.5 38v215q0 29 -12.5 37.5t-32.5 8.5h-38z
M132 668q-20 0 -32.5 -8.5t-12.5 -37.5v-215q0 -29 12.5 -38t32.5 -9h38q20 0 32.5 9t12.5 38v215q0 29 -12.5 37.5t-32.5 8.5h-38zM688 340q-20 0 -32.5 -8.5t-12.5 -37.5v-215q0 -29 12.5 -38t32.5 -9h38q20 0 32.5 9t12.5 38v215q0 29 -12.5 37.5t-32.5 8.5h-38zM423 700
h42l-284 -700h-41z" />
    <glyph glyph-name="guilsinglleft" unicode="&#x2039;" horiz-adv-x="174" 
d="M14 278v9l93 163h44l-82 -163v-9l82 -162h-44z" />
    <glyph glyph-name="guilsinglright" unicode="&#x203a;" horiz-adv-x="174" 
d="M66 116h-44l82 162v9l-82 163h44l93 -163v-9z" />
    <glyph glyph-name="fraction" unicode="&#x2044;" horiz-adv-x="242" 
d="M226 700h41l-252 -700h-41z" />
    <glyph glyph-name="Euro" unicode="&#x20ac;" horiz-adv-x="405" 
d="M196 646q-16 0 -29.5 -2.5t-23.5 -10.5t-15.5 -23t-5.5 -39v-141h204v-34h-204v-76h204v-34h-204v-157q0 -24 5.5 -39t15.5 -23t23.5 -10.5t29.5 -2.5h40q16 0 30 2.5t23.5 10.5t15 23t5.5 39v92h65v-89q0 -42 -8 -68t-25.5 -41t-44.5 -20t-65 -5h-36q-38 0 -65 5t-44 20
t-25.5 41t-8.5 68v154h-39v34h39v76h-39v34h39v138q0 42 8.5 68.5t25.5 41t44 19.5t65 5h35q37 0 64 -5t44.5 -19.5t25.5 -41t8 -68.5v-66h-65v69q0 24 -5.5 39t-15 23t-23 10.5t-29.5 2.5h-39v0z" />
    <glyph glyph-name="uni2116" unicode="&#x2116;" horiz-adv-x="797" 
d="M632 702q34 0 58 -5.5t38 -19t20.5 -35t6.5 -54.5v-352q0 -33 -6.5 -54.5t-20.5 -35t-38 -19t-58 -5.5h-43q-35 0 -58.5 5.5t-37.5 19t-20.5 35t-6.5 54.5v352q0 33 6.5 54.5t20.5 35t37.5 19t58.5 5.5h43zM632 180q26 0 43 10.5t17 50.5v342q0 20 -4.5 32.5t-12.5 19
t-19 8.5t-24 2h-43q-13 0 -24 -2t-19 -8.5t-12.5 -19t-4.5 -32.5v-342q0 -40 17 -50.5t43 -10.5h43zM466 57h289v-57h-289v57zM122 700l188 -541h1v541h65v-700h-74l-186 530h-2v-530h-67v700h75z" />
    <glyph glyph-name="trademark" unicode="&#x2122;" horiz-adv-x="475" 
d="M247 350h-34v350h57l54 -281h2l55 281h56v-350h-33l2 309h-1l-63 -309h-34l-62 309h-1zM16 700h172v-30h-69v-320h-35v320h-68v30z" />
    <glyph glyph-name="arrowleft" unicode="&#x2190;" horiz-adv-x="400" 
d="M35 292v8l133 163l29 -25l-102 -123h277v-38h-277l102 -123l-29 -25z" />
    <glyph glyph-name="arrowup" unicode="&#x2191;" horiz-adv-x="400" 
d="M205 463l162 -133l-25 -29l-122 102v-277h-39v277l-123 -102l-25 29l163 133h9z" />
    <glyph glyph-name="arrowright" unicode="&#x2192;" horiz-adv-x="400" 
d="M238 129l-29 25l102 123h-277v38h277l-102 123l29 25l133 -163v-8z" />
    <glyph glyph-name="arrowdown" unicode="&#x2193;" horiz-adv-x="400" 
d="M196 125l-163 133l25 29l123 -102v277h39v-277l122 102l25 -29l-162 -133h-9z" />
    <glyph glyph-name="uni2196" unicode="&#x2196;" horiz-adv-x="400" 
d="M80 412l6 6l209 17l3 -37l-159 -12l196 -196l-27 -27l-196 196l-13 -159l-37 2z" />
    <glyph glyph-name="uni2197" unicode="&#x2197;" horiz-adv-x="400" 
d="M336 202l-37 -2l-13 159l-196 -196l-27 27l196 196l-159 12l3 37l209 -17l6 -6z" />
    <glyph glyph-name="uni2198" unicode="&#x2198;" horiz-adv-x="400" 
d="M318 181l-6 -6l-209 -17l-3 37l159 12l-196 196l27 27l196 -196l13 159l37 -2z" />
    <glyph glyph-name="uni2199" unicode="&#x2199;" horiz-adv-x="400" 
d="M62 391l37 2l13 -159l196 196l27 -27l-196 -196l159 -12l-3 -37l-209 17l-6 6z" />
    <glyph glyph-name="minus" unicode="&#x2212;" horiz-adv-x="322" 
d="M25 381h273v-45h-273v45z" />
    <glyph glyph-name="uniF6C3" unicode="&#xf6c3;" horiz-adv-x="500" 
d="M232 65h44v-68q0 -17 -2 -28.5t-6 -21.5t-10 -19t-14 -20l-18 10q6 12 10.5 19.5t6.5 14.5t3 15.5t1 22.5h-15v75z" />
    <glyph glyph-name="uniFB01" unicode="&#xfb01;" horiz-adv-x="361" 
d="M218 653h-68q-20 0 -26 -11t-6 -29v-61h198v-552h-64v499h-134v-499h-64v499h-42v53h42v66q0 27 4.5 45t15.5 28.5t29.5 14.5t46.5 4h68v-57z" />
    <glyph glyph-name="uniFB02" unicode="&#xfb02;" horiz-adv-x="360" 
d="M315 710v-710h-63v659h-102q-20 0 -26 -10.5t-6 -28.5v-68h66v-53h-66v-499h-64v499h-42v53h42v66q0 27 4.5 45t15.5 28.5t29.5 14.5t46.5 4h165z" />
    <glyph glyph-name="glyph206" horiz-adv-x="154" 
d="M46 552h63v-552h-63v552zM44 677h66v-62h-66v62z" />
    <glyph glyph-name="glyph207" 
d="M183 554q13 0 37.5 -0.5t49.5 -0.5q29 -1 62 -1v-552q-34 -1 -64 -1q-26 -1 -51 -1h-38h-36q-45 0 -72.5 23t-27.5 74v363q0 51 27.5 73.5t72.5 22.5h40zM269 54v445h-115q-22 0 -35 -14t-13 -37v-343q0 -23 13 -37t35 -14h115zM207 679h66l-70 -82h-43z" />
    <glyph glyph-name="glyph208" 
d="M183 554q13 0 37.5 -0.5t49.5 -0.5q29 -1 62 -1v-552q-34 -1 -64 -1q-26 -1 -51 -1h-38h-36q-45 0 -72.5 23t-27.5 74v363q0 51 27.5 73.5t72.5 22.5h40zM269 54v445h-115q-22 0 -35 -14t-13 -37v-343q0 -23 13 -37t35 -14h115z" />
    <glyph glyph-name="glyph209" 
d="M183 554q13 0 37.5 -0.5t49.5 -0.5q29 -1 62 -1v-552q-34 -1 -64 -1q-26 -1 -51 -1h-38h-36q-45 0 -72.5 23t-27.5 74v363q0 51 27.5 73.5t72.5 22.5h40zM269 54v445h-115q-22 0 -35 -14t-13 -37v-343q0 -23 13 -37t35 -14h115zM160 679h64l66 -82h-43l-55 55l-55 -55
h-43z" />
    <glyph glyph-name="glyph210" 
d="M183 554q13 0 37.5 -0.5t49.5 -0.5q29 -1 62 -1v-552q-34 -1 -64 -1q-26 -1 -51 -1h-38h-36q-45 0 -72.5 23t-27.5 74v363q0 51 27.5 73.5t72.5 22.5h40zM269 54v445h-115q-22 0 -35 -14t-13 -37v-343q0 -23 13 -37t35 -14h115zM109 679h44v-71h-44v71zM237 679h44v-71
h-44v71z" />
    <glyph glyph-name="glyph211" 
d="M183 554q13 0 37.5 -0.5t49.5 -0.5q29 -1 62 -1v-552q-34 -1 -64 -1q-26 -1 -51 -1h-38h-36q-45 0 -72.5 23t-27.5 74v363q0 51 27.5 73.5t72.5 22.5h40zM269 54v445h-115q-22 0 -35 -14t-13 -37v-343q0 -23 13 -37t35 -14h115zM238 597h-43l-69 82h66z" />
    <glyph glyph-name="glyph212" 
d="M183 554q13 0 37.5 -0.5t49.5 -0.5q29 -1 62 -1v-552q-34 -1 -64 -1q-26 -1 -51 -1h-38h-36q-45 0 -72.5 23t-27.5 74v363q0 51 27.5 73.5t72.5 22.5h40zM269 54v445h-115q-22 0 -35 -14t-13 -37v-343q0 -23 13 -37t35 -14h115zM97 658h186v-38h-186v38z" />
    <glyph glyph-name="glyph213" 
d="M183 554q13 0 37.5 -0.5t49.5 -0.5q29 -1 62 -1v-552q-34 -1 -64 -1q-26 -1 -51 -1h-38h-36q-45 0 -72.5 23t-27.5 74v363q0 51 27.5 73.5t72.5 22.5h40zM269 54v445h-115q-22 0 -35 -14t-13 -37v-343q0 -23 13 -37t35 -14h115zM176 596q-42 0 -60 16t-18 61v10h40v-14
q0 -26 12 -33t27 -7h36q15 0 27 7t12 33v14h39v-10q0 -45 -18 -61t-59 -16h-38z" />
    <glyph glyph-name="glyph214" 
d="M337 -68q0 -26 -9 -40.5t-40 -14.5h-38q-31 0 -42 11.5t-11 37.5v12q0 11 2.5 18.5t7 12.5t12 10t18.5 11l16 9q-23 -1 -43 -1h-31h-36q-45 0 -72.5 23t-27.5 74v363q0 51 27.5 73.5t72.5 22.5h40q13 0 37.5 -0.5t49.5 -0.5q29 -1 62 -1v-552h-10q-5 0 -11 -0.5t-13 -0.5
l-34 -21q-18 -13 -25 -17.5t-7 -18.5v-9q0 -14 4.5 -20t18.5 -6h26q14 0 18 5t4 19v15h34v-14zM269 54v445h-115q-22 0 -35 -14t-13 -37v-343q0 -23 13 -37t35 -14h115z" />
    <glyph glyph-name="glyph215" 
d="M183 554q13 0 37.5 -0.5t49.5 -0.5q29 -1 62 -1v-552q-34 -1 -64 -1q-26 -1 -51 -1h-38h-36q-45 0 -72.5 23t-27.5 74v363q0 51 27.5 73.5t72.5 22.5h40zM269 54v445h-115q-22 0 -35 -14t-13 -37v-343q0 -23 13 -37t35 -14h115zM200 710q34 0 45.5 -12.5t11.5 -41.5v-13
q0 -29 -11.5 -41.5t-45.5 -12.5h-15q-33 0 -45 12.5t-12 41.5v13q0 29 12 41.5t45 12.5h15zM186 688q-21 0 -27 -6t-6 -24v-16q0 -20 6.5 -25.5t26.5 -5.5h13q20 0 27 5.5t7 25.5v16q0 18 -6 24t-28 6h-13zM207 824h66l-70 -82h-43z" />
    <glyph glyph-name="glyph216" 
d="M183 554q13 0 37.5 -0.5t49.5 -0.5q29 -1 62 -1v-552q-34 -1 -64 -1q-26 -1 -51 -1h-38h-36q-45 0 -72.5 23t-27.5 74v363q0 51 27.5 73.5t72.5 22.5h40zM269 54v445h-115q-22 0 -35 -14t-13 -37v-343q0 -23 13 -37t35 -14h115zM135 653l-2 -47h-30l2 72h31l107 -40l3 39
h29l-2 -73h-30z" />
    <glyph glyph-name="glyph217" 
d="M183 554q13 0 37.5 -0.5t49.5 -0.5q29 -1 62 -1v-552q-34 -1 -64 -1q-26 -1 -51 -1h-38h-36q-45 0 -72.5 23t-27.5 74v363q0 51 27.5 73.5t72.5 22.5h40zM269 54v445h-115q-22 0 -35 -14t-13 -37v-343q0 -23 13 -37t35 -14h115zM197 710q34 0 45.5 -12.5t11.5 -41.5v-13
q0 -29 -11.5 -41.5t-45.5 -12.5h-15q-33 0 -45 12.5t-12 41.5v13q0 29 12 41.5t45 12.5h15zM183 688q-21 0 -27 -6t-6 -24v-16q0 -20 6.5 -25.5t26.5 -5.5h13q20 0 27 5.5t7 25.5v16q0 18 -6 24t-28 6h-13z" />
    <glyph glyph-name="glyph218" horiz-adv-x="380" 
d="M364 554v-33l-59 -9q14 -8 22 -25t8 -47v-188q0 -33 -6.5 -54.5t-20.5 -34.5t-38 -18.5t-58 -5.5h-45q-14 0 -26 1t-21 5q-9 -1 -22 -8t-13 -25q0 -14 4.5 -20t31.5 -6h124q34 0 54.5 -4t31 -14.5t13.5 -30.5t3 -51v-14q0 -33 -6.5 -54.5t-20.5 -35t-38 -19t-58 -5.5
h-102q-68 0 -89.5 20.5t-7.5 79.5q5 29 19 52t23 35q-15 2 -23.5 7t-12.5 12.5t-5 17.5t-1 23q0 14 5.5 23.5t13 16.5t15 11t12.5 6q-27 24 -27 90v188q0 36 6.5 58.5t20.5 34.5t37.5 16.5t58.5 4.5h197zM212 195q27 0 43.5 11t16.5 50v181q0 40 -16.5 50.5t-43.5 10.5h-45
q-26 0 -42.5 -10.5t-16.5 -50.5v-181q0 -39 16.5 -50t42.5 -11h45zM228 -87q26 0 42.5 10.5t16.5 50.5v18q0 25 -6.5 36.5t-32.5 11.5h-136q-5 -8 -14.5 -24t-11.5 -49q-2 -18 -2 -29t3.5 -16.5t11 -7t20.5 -1.5h109zM169 596q-42 0 -60 16t-18 61v10h40v-14q0 -26 12 -33
t27 -7h36q15 0 27 7t12 33v14h39v-10q0 -45 -18 -61t-59 -16h-38z" />
    <glyph glyph-name="glyph219" horiz-adv-x="380" 
d="M364 554v-33l-59 -9q14 -8 22 -25t8 -47v-188q0 -33 -6.5 -54.5t-20.5 -34.5t-38 -18.5t-58 -5.5h-45q-14 0 -26 1t-21 5q-9 -1 -22 -8t-13 -25q0 -14 4.5 -20t31.5 -6h124q34 0 54.5 -4t31 -14.5t13.5 -30.5t3 -51v-14q0 -33 -6.5 -54.5t-20.5 -35t-38 -19t-58 -5.5
h-102q-68 0 -89.5 20.5t-7.5 79.5q5 29 19 52t23 35q-15 2 -23.5 7t-12.5 12.5t-5 17.5t-1 23q0 14 5.5 23.5t13 16.5t15 11t12.5 6q-27 24 -27 90v188q0 36 6.5 58.5t20.5 34.5t37.5 16.5t58.5 4.5h197zM212 195q27 0 43.5 11t16.5 50v181q0 40 -16.5 50.5t-43.5 10.5h-45
q-26 0 -42.5 -10.5t-16.5 -50.5v-181q0 -39 16.5 -50t42.5 -11h45zM228 -87q26 0 42.5 10.5t16.5 50.5v18q0 25 -6.5 36.5t-32.5 11.5h-136q-5 -8 -14.5 -24t-11.5 -49q-2 -18 -2 -29t3.5 -16.5t11 -7t20.5 -1.5h109z" />
    <glyph glyph-name="glyph220" horiz-adv-x="380" 
d="M364 554v-33l-59 -9q14 -8 22 -25t8 -47v-188q0 -33 -6.5 -54.5t-20.5 -34.5t-38 -18.5t-58 -5.5h-45q-14 0 -26 1t-21 5q-9 -1 -22 -8t-13 -25q0 -14 4.5 -20t31.5 -6h124q34 0 54.5 -4t31 -14.5t13.5 -30.5t3 -51v-14q0 -33 -6.5 -54.5t-20.5 -35t-38 -19t-58 -5.5
h-102q-68 0 -89.5 20.5t-7.5 79.5q5 29 19 52t23 35q-15 2 -23.5 7t-12.5 12.5t-5 17.5t-1 23q0 14 5.5 23.5t13 16.5t15 11t12.5 6q-27 24 -27 90v188q0 36 6.5 58.5t20.5 34.5t37.5 16.5t58.5 4.5h197zM212 195q27 0 43.5 11t16.5 50v181q0 40 -16.5 50.5t-43.5 10.5h-45
q-26 0 -42.5 -10.5t-16.5 -50.5v-181q0 -39 16.5 -50t42.5 -11h45zM228 -87q26 0 42.5 10.5t16.5 50.5v18q0 25 -6.5 36.5t-32.5 11.5h-136q-5 -8 -14.5 -24t-11.5 -49q-2 -18 -2 -29t3.5 -16.5t11 -7t20.5 -1.5h109zM167 681h44v-65h-44v65z" />
    <glyph glyph-name="glyph221" horiz-adv-x="380" 
d="M364 554v-33l-59 -9q14 -8 22 -25t8 -47v-188q0 -33 -6.5 -54.5t-20.5 -34.5t-38 -18.5t-58 -5.5h-45q-14 0 -26 1t-21 5q-9 -1 -22 -8t-13 -25q0 -14 4.5 -20t31.5 -6h124q34 0 54.5 -4t31 -14.5t13.5 -30.5t3 -51v-14q0 -33 -6.5 -54.5t-20.5 -35t-38 -19t-58 -5.5
h-102q-68 0 -89.5 20.5t-7.5 79.5q5 29 19 52t23 35q-15 2 -23.5 7t-12.5 12.5t-5 17.5t-1 23q0 14 5.5 23.5t13 16.5t15 11t12.5 6q-27 24 -27 90v188q0 36 6.5 58.5t20.5 34.5t37.5 16.5t58.5 4.5h197zM212 195q27 0 43.5 11t16.5 50v181q0 40 -16.5 50.5t-43.5 10.5h-45
q-26 0 -42.5 -10.5t-16.5 -50.5v-181q0 -39 16.5 -50t42.5 -11h45zM228 -87q26 0 42.5 10.5t16.5 50.5v18q0 25 -6.5 36.5t-32.5 11.5h-136q-5 -8 -14.5 -24t-11.5 -49q-2 -18 -2 -29t3.5 -16.5t11 -7t20.5 -1.5h109zM159 679h64l66 -82h-43l-55 55l-55 -55h-43z" />
    <glyph glyph-name="glyph222" horiz-adv-x="380" 
d="M364 554v-33l-59 -9q14 -8 22 -25t8 -47v-188q0 -33 -6.5 -54.5t-20.5 -34.5t-38 -18.5t-58 -5.5h-45q-14 0 -26 1t-21 5q-9 -1 -22 -8t-13 -25q0 -14 4.5 -20t31.5 -6h124q34 0 54.5 -4t31 -14.5t13.5 -30.5t3 -51v-14q0 -33 -6.5 -54.5t-20.5 -35t-38 -19t-58 -5.5
h-102q-68 0 -89.5 20.5t-7.5 79.5q5 29 19 52t23 35q-15 2 -23.5 7t-12.5 12.5t-5 17.5t-1 23q0 14 5.5 23.5t13 16.5t15 11t12.5 6q-27 24 -27 90v188q0 36 6.5 58.5t20.5 34.5t37.5 16.5t58.5 4.5h197zM212 195q27 0 43.5 11t16.5 50v181q0 40 -16.5 50.5t-43.5 10.5h-45
q-26 0 -42.5 -10.5t-16.5 -50.5v-181q0 -39 16.5 -50t42.5 -11h45zM228 -87q26 0 42.5 10.5t16.5 50.5v18q0 25 -6.5 36.5t-32.5 11.5h-136q-5 -8 -14.5 -24t-11.5 -49q-2 -18 -2 -29t3.5 -16.5t11 -7t20.5 -1.5h109zM217 598h-44v68q0 16 2 28t6 22t10 19t14 20l18 -10
q-6 -12 -10.5 -19.5t-6.5 -14.5t-3 -15.5t-1 -22.5h15v-75z" />
    <glyph glyph-name="glyph224" 
d="M204 679h66l-70 -82h-43zM209 -74q31 0 45.5 11t14.5 53v42h-126q-45 0 -72.5 23t-27.5 73v424h63v-414q0 -23 13 -37t35 -14h115v465h63v-566q0 -36 -6.5 -58t-20.5 -34.5t-38 -17t-58 -4.5h-43q-37 0 -59.5 5t-34.5 18.5t-16 37t-4 59.5v17h61v-20q0 -39 10.5 -51
t42.5 -12h43z" />
    <glyph glyph-name="glyph225" 
d="M209 -74q31 0 45.5 11t14.5 53v42h-126q-45 0 -72.5 23t-27.5 73v424h63v-414q0 -23 13 -37t35 -14h115v465h63v-566q0 -36 -6.5 -58t-20.5 -34.5t-38 -17t-58 -4.5h-43q-37 0 -59.5 5t-34.5 18.5t-16 37t-4 59.5v17h61v-20q0 -39 10.5 -51t42.5 -12h43z" />
    <glyph glyph-name="glyph226" 
d="M103 679h44v-71h-44v71zM231 679h44v-71h-44v71zM209 -74q31 0 45.5 11t14.5 53v42h-126q-45 0 -72.5 23t-27.5 73v424h63v-414q0 -23 13 -37t35 -14h115v465h63v-566q0 -36 -6.5 -58t-20.5 -34.5t-38 -17t-58 -4.5h-43q-37 0 -59.5 5t-34.5 18.5t-16 37t-4 59.5v17h61
v-20q0 -39 10.5 -51t42.5 -12h43z" />
    <glyph glyph-name="glyph227" 
d="M157 679h64l66 -82h-43l-55 55l-55 -55h-43zM209 -74q31 0 45.5 11t14.5 53v42h-126q-45 0 -72.5 23t-27.5 73v424h63v-414q0 -23 13 -37t35 -14h115v465h63v-566q0 -36 -6.5 -58t-20.5 -34.5t-38 -17t-58 -4.5h-43q-37 0 -59.5 5t-34.5 18.5t-16 37t-4 59.5v17h61v-20
q0 -39 10.5 -51t42.5 -12h43z" />
    <glyph glyph-name="glyph228" 
d="M209 -74q31 0 45.5 11t14.5 53v42h-126q-45 0 -72.5 23t-27.5 73v424h63v-414q0 -23 13 -37t35 -14h115v465h63v-566q0 -36 -6.5 -58t-20.5 -34.5t-38 -17t-58 -4.5h-43q-37 0 -59.5 5t-34.5 18.5t-16 37t-4 59.5v17h61v-20q0 -39 10.5 -51t42.5 -12h43zM224 597h-43
l-69 82h66z" />
    <glyph glyph-name="glyph229" horiz-adv-x="900" 
d="M450 706q73 0 138 -28t113.5 -76.5t76.5 -113.5t28 -138q0 -74 -28 -138.5t-76.5 -113t-113.5 -76.5t-138 -28q-74 0 -138.5 28t-113 76.5t-76.5 113t-28 138.5q0 73 28 138t76.5 113.5t113 76.5t138.5 28zM371 306q32 8 55.5 31.5t30.5 54.5q10 38 -9.5 64t-57.5 26h-90
l-61 -241h181zM646 422q7 23 -7.5 40.5t-38.5 19.5h-108l-59 -241h125q27 0 51.5 19t30.5 46q6 23 -6 40.5t-37 20.5q19 7 31.5 22t17.5 33z" />
    <glyph glyph-name="glyph230" horiz-adv-x="519" 
d="M152 609h132q26 0 44 -3.5t29 -13t16 -26.5t5 -44v-115q0 -41 -10.5 -56t-38.5 -20q28 -5 38.5 -22.5t10.5 -57.5v-162h-50v167q0 35 -15 45t-36 10h-75v-222h-50v520zM202 353h82q18 0 31 7.5t13 38.5v121q0 30 -12 38t-32 8h-82v-213zM338 700q68 0 109 -32.5
t41 -108.5v-417q0 -38 -11 -65t-30.5 -44t-47 -25t-61.5 -8h-152q-67 0 -108 33t-41 109v417q0 76 41 108.5t108 32.5h152zM338 16q63 0 97.5 30t34.5 96v417q0 68 -36.5 97t-95.5 29h-152q-59 0 -95 -29t-36 -97v-417q0 -65 34 -95.5t97 -30.5h152z" />
    <glyph glyph-name="glyph231" horiz-adv-x="519" 
d="M157 609h131q26 0 44 -3.5t29.5 -13t16.5 -26.5t5 -44v-145q0 -27 -5.5 -44.5t-16.5 -27.5t-29.5 -13.5t-43.5 -3.5h-82v-199h-49v520zM206 332h82q18 0 31.5 7.5t13.5 38.5v142q0 30 -12.5 38t-32.5 8h-82v-234zM338 700q68 0 109 -32.5t41 -108.5v-417q0 -38 -11 -65
t-30.5 -44t-47 -25t-61.5 -8h-152q-67 0 -108 33t-41 109v417q0 76 41 108.5t108 32.5h152zM338 16q63 0 97.5 30t34.5 96v417q0 68 -36.5 97t-95.5 29h-152q-59 0 -95 -29t-36 -97v-417q0 -65 34 -95.5t97 -30.5h152z" />
    <glyph glyph-name="glyph232" horiz-adv-x="198" 
d="M104 57q0 -28 3 -42.5t11 -27.5q3 -6 9 -14t13 -16.5t13 -16t8 -10.5l-27 -25q-5 3 -13 10.5t-17 16.5t-17.5 18.5t-13.5 17.5q-13 16 -19.5 37t-6.5 52v578q0 31 6.5 52t19.5 37q5 7 13.5 17t17.5 19t17 16.5t13 10.5l26 -25q-2 -3 -8 -10.5t-12.5 -16t-12.5 -16.5
t-9 -14q-8 -13 -11 -27.5t-3 -42.5v-578z" />
    <glyph glyph-name="glyph233" horiz-adv-x="198" 
d="M93 635q0 28 -3 42.5t-11 27.5q-3 6 -9 14t-13 16.5t-12.5 16t-7.5 10.5l26 25q4 -3 12.5 -10.5t17.5 -16.5t17.5 -19t13.5 -17q13 -16 19.5 -37t6.5 -52v-578q0 -31 -6.5 -52t-19.5 -37q-5 -8 -13.5 -17.5t-17.5 -18.5t-17.5 -16.5t-12.5 -10.5l-27 25q2 3 8 10.5t13 16
t13 16.5t9 14q8 13 11 27.5t3 42.5v578z" />
    <glyph glyph-name="glyph234" horiz-adv-x="281" 
d="M25 384h231v-53h-231v53z" />
    <glyph glyph-name="glyph235" horiz-adv-x="243" 
d="M105 -12h129v-49h-185v827h185v-48h-129v-730z" />
    <glyph glyph-name="glyph236" horiz-adv-x="243" 
d="M137 718h-129v48h185v-827h-185v49h129v730z" />
    <glyph glyph-name="glyph237" horiz-adv-x="216" 
d="M9 369q4 3 13.5 8.5t19 14.5t16.5 23t7 34v186q0 31 7 52t19 37q5 7 14 17t18 19t17 16.5t12 10.5l24 -19q-2 -3 -7.5 -10t-11.5 -15.5l-12 -17t-9 -13.5q-8 -14 -11 -31.5t-3 -45.5v-186q0 -38 -18 -61t-38 -37q20 -14 38 -37t18 -60v-197q0 -28 3 -45.5t11 -31.5
q3 -5 9 -13t12 -16.5t11.5 -16t7.5 -10.5l-24 -19q-4 3 -12 11l-17 17t-18 18.5t-14 16.5q-12 16 -19 37t-7 52v197q0 19 -7 32.5t-16 23t-18.5 15.5t-14.5 9v35z" />
    <glyph glyph-name="glyph238" horiz-adv-x="240" 
d="M95 760h51v-826h-51v826z" />
    <glyph glyph-name="glyph239" horiz-adv-x="216" 
d="M206 334q-5 -3 -14.5 -9t-18.5 -15.5t-16 -23t-7 -32.5v-197q0 -31 -7 -52t-19 -37q-5 -7 -14 -16.5t-18 -18.5l-17 -17t-12 -11l-24 19q2 3 7.5 10.5t11.5 16t12 16.5t9 13q8 14 11 31.5t3 45.5v197q0 37 18 60t38 37q-20 14 -38 37t-18 61v186q0 28 -3 45.5t-11 31.5
q-3 5 -9 13.5l-12 17t-11.5 15.5t-7.5 10l24 19q4 -3 12 -10.5t17 -16.5t18 -19t14 -17q12 -16 19 -37t7 -52v-186q0 -20 7 -34t16.5 -23t19 -14.5t13.5 -8.5v-35z" />
    <glyph glyph-name="glyph240" horiz-adv-x="174" 
d="M14 351v9l93 163h44l-82 -163v-9l82 -162h-44z" />
    <glyph glyph-name="glyph241" horiz-adv-x="174" 
d="M66 189h-44l82 162v9l-82 163h44l93 -163v-9z" />
    <glyph glyph-name="glyph242" horiz-adv-x="278" 
d="M122 351v9l87 163h46l-79 -163v-9l79 -162h-46zM14 360l93 163h44l-82 -163v-9l82 -162h-44l-93 162v9z" />
    <glyph glyph-name="glyph243" horiz-adv-x="278" 
d="M69 189h-46l79 162v9l-79 163h46l87 -163v-9zM264 351l-93 -162h-44l82 162v9l-82 163h44l93 -163v-9z" />
    <glyph glyph-name="glyph244" horiz-adv-x="388" 
d="M17 378h354v-46h-354v46z" />
    <glyph glyph-name="glyph245" horiz-adv-x="551" 
d="M17 378h517v-46h-517v46z" />
    <glyph glyph-name="glyph246" horiz-adv-x="246" 
d="M134 450q21 0 32.5 -3.5t17.5 -11t7.5 -19.5t1.5 -30v-63q0 -18 -1.5 -29.5t-7.5 -19t-17.5 -10.5t-32.5 -3h-20q-21 0 -33.5 3t-18.5 10.5t-7.5 19t-1.5 29.5v63q0 18 1.5 30t7.5 19.5t18.5 11t33.5 3.5h20z" />
    <glyph glyph-name="glyph247" horiz-adv-x="174" 
d="M59 408h58v-103h-58v103z" />
    <glyph glyph-name="glyph248" horiz-adv-x="743" 
d="M206 702q37 0 64 -5t44.5 -19.5t25.5 -41t8 -68.5v-102h-69v107q0 24 -5.5 38t-15 21t-23 9t-29.5 2h-28q-16 0 -29.5 -2t-23 -9t-15 -21t-5.5 -38v-79q0 -22 5 -35.5t15 -22t24.5 -14.5t33.5 -13l72 -25l37.5 -15t31 -19.5t21 -32t7.5 -52.5v-133q0 -42 -8.5 -68
t-25.5 -41t-44 -20t-64 -5h-32q-38 0 -64.5 5t-44 20t-25.5 41t-8 68v102h69v-106q0 -24 5 -38.5t15 -21.5t23 -9t30 -2h32q16 0 29.5 2t23 9t15 21.5t5.5 38.5v121q0 21 -5.5 33.5t-15 20.5t-22.5 13t-29 12l-76 25q-20 8 -38 15.5t-31.5 20.5t-21.5 33t-8 52v94
q0 42 8.5 68.5t25.5 41t44 19.5t64 5h28zM562 702q37 0 64 -5t44.5 -19.5t25.5 -41t8 -68.5v-102h-69v107q0 24 -5.5 38t-15 21t-23 9t-29.5 2h-28q-16 0 -29.5 -2t-23 -9t-15 -21t-5.5 -38v-79q0 -22 5 -35.5t15 -22t24.5 -14.5t33.5 -13l72 -25l37.5 -15t31 -19.5t21 -32
t7.5 -52.5v-133q0 -42 -8.5 -68t-25.5 -41t-44 -20t-64 -5h-32q-38 0 -64.5 5t-44 20t-25.5 41t-8 68v102h69v-106q0 -24 5 -38.5t15 -21.5t23 -9t30 -2h32q16 0 29.5 2t23 9t15 21.5t5.5 38.5v121q0 21 -5.5 33.5t-15 20.5t-22.5 13t-29 12l-76 25q-20 8 -38 15.5
t-31.5 20.5t-21.5 33t-8 52v94q0 42 8.5 68.5t25.5 41t44 19.5t64 5h28z" />
    <glyph glyph-name="glyph249" horiz-adv-x="154" 
d="M46 552h63v-552h-63v552zM51 681h53v-65h-53v65z" />
    <glyph glyph-name="glyph250" horiz-adv-x="500" 
d="M233 716h40v-69q0 -31 -9 -46.5t-23 -32.5l-13 10q7 10 11 16.5t6 12.5t2.5 13.5t0.5 21.5h-15v74z" />
    </font>
</defs>
</svg>
